<svg width="128" height="22" viewBox="0 0 128 22" fill="none" xmlns="http://www.w3.org/2000/svg">
<g clip-path="url(#clip0_444_586)">
<path d="M35.7268 0H34.7833V21.7831H35.7268V0Z" fill="white"/>
<path d="M54.1251 0H53.0873V21.7831H54.1251V0Z" fill="white"/>
<path d="M126.711 21.8141H127.748V0H126.711V21.8141Z" fill="white"/>
<path d="M109.319 0H108.281V21.7831H109.319V0Z" fill="white"/>
<path d="M72.5228 0H71.5164V21.7831H72.5228V0Z" fill="white"/>
<path d="M90.9212 0H89.8834V21.7831H90.9212V0Z" fill="white"/>
<path d="M43.4631 3.65628L38.9029 18.1577H41.01L42.0793 14.5014H46.7967L47.866 18.1577H49.9417L45.4444 3.65628H43.4631ZM42.5196 12.9211L44.3751 6.59994H44.438L46.2621 12.9211H42.5196Z" fill="white"/>
<path d="M26.3861 12.3323V10.783H30.9463V16.0506C30.5375 16.7013 29.9714 17.259 29.3109 17.6309C28.4303 18.1576 27.424 18.3435 26.4176 18.3435C25.0338 18.3435 23.65 17.9097 22.6751 16.9492C21.7316 16.0506 21.2598 14.6872 21.2598 12.983V8.73789C21.2598 7.06465 21.7316 5.76324 22.6122 4.86465C23.5242 3.90409 24.8136 3.4393 26.166 3.4393C27.4554 3.4393 28.6819 3.71817 29.6254 4.58578C30.506 5.39141 30.9149 6.53789 30.9463 7.71536V7.77733H28.965C28.9964 7.03367 28.7448 6.25902 28.2416 5.70127C27.7384 5.17451 26.9837 4.9886 26.1974 4.9886C25.3797 4.9886 24.5935 5.32944 24.0903 5.98015C23.5556 6.63085 23.3355 7.52944 23.3355 8.76888V13.1069C23.3355 14.3463 23.6185 15.2759 24.1846 15.9266C24.7507 16.5773 25.5684 16.9182 26.449 16.9182C27.0151 16.9182 27.6127 16.8252 28.0844 16.5463C28.4618 16.3294 28.7134 15.9886 28.9021 15.6168V12.3323H26.3861Z" fill="white"/>
<path d="M65.9496 3.65628H68.6542V18.1577H66.5786V12.5802L66.7673 7.00276H66.7044L63.4965 18.1577H62.1127L58.9048 7.00276H58.8734L59.0306 12.5802V18.1577H56.9864V3.65628H59.6282L62.8046 15.1211L65.9496 3.65628Z" fill="white"/>
<path d="M102.431 3.65628H104.475V18.1577H102.431L96.8646 7.37459H96.7702V18.1577H94.726V3.65628H96.7702L102.337 14.4394L102.431 14.4084V3.65628Z" fill="white"/>
<path d="M77.712 3.65628H84.6624V5.23656H82.2093V16.5464H84.6624V18.1577H77.712V16.5154H80.1651V5.20558H77.712V3.65628Z" fill="white"/>
<path fill-rule="evenodd" clip-rule="evenodd" d="M16.4167 21.8141H0.943489C0.440295 21.8141 0 21.3803 0 20.8535V0.929577C0 0.402817 0.408845 0 0.943489 0H16.4167C16.9514 0 17.3602 0.402817 17.3602 0.929577V20.8845C17.3602 21.4113 16.9514 21.8141 16.4167 21.8141ZM11.6048 10.6281C12.3281 10.783 12.9571 11.1859 13.3345 11.8056C13.7119 12.4253 13.9006 13.076 13.9006 13.9126C13.9006 15.307 13.4918 16.3915 12.6741 17.0732C11.8249 17.8168 10.6927 18.1887 9.56055 18.1887H4.27701V3.65628H8.96301C10.221 3.65628 11.2903 3.96614 12.2023 4.64783C13.1144 5.32952 13.4918 6.41402 13.4918 7.59149C13.4918 8.21121 13.3345 8.86191 13.02 9.41966C12.7055 9.9774 12.2023 10.3802 11.6048 10.6281ZM8.45981 5.91825H7.01313H6.98168V9.79149H8.58561C9.1517 9.79149 9.56055 9.60557 9.90649 9.26473C10.2839 8.8929 10.3782 8.36614 10.3782 7.87036C10.4097 7.3436 10.2839 6.78585 9.90649 6.41402C9.5291 6.04219 9.0888 5.91825 8.45981 5.91825ZM8.93156 15.8957C9.43475 15.8957 10.0008 15.8028 10.3468 15.4309C10.7242 15.0281 10.8185 14.4394 10.85 13.8816C10.85 13.3239 10.7871 12.7661 10.4726 12.3013C10.1895 11.8985 9.68635 11.7436 9.1517 11.7436H7.04458V15.8957H8.93156Z" fill="white"/>
<path d="M118.314 12.3324V10.7831H122.874V16.0507C122.465 16.7014 121.899 17.2592 121.238 17.631C120.358 18.1577 119.351 18.3437 118.345 18.3437C116.961 18.3437 115.577 17.9099 114.602 16.9493C113.659 16.0507 113.187 14.6873 113.187 12.9831V8.70704C113.187 7.0338 113.659 5.73239 114.54 4.8338C115.452 3.87324 116.741 3.40845 118.093 3.40845C119.383 3.40845 120.609 3.68732 121.553 4.55493C122.433 5.36056 122.842 6.50704 122.874 7.6845V7.74648H120.892C120.924 7.00281 120.672 6.22817 120.169 5.67042C119.666 5.14366 118.911 4.95774 118.125 4.95774C117.307 4.95774 116.521 5.29859 116.018 5.94929C115.483 6.6 115.263 7.49859 115.263 8.73802V13.0761C115.263 14.3155 115.546 15.2451 116.112 15.8958C116.678 16.5465 117.496 16.8873 118.376 16.8873C118.943 16.8873 119.54 16.7944 120.012 16.5155C120.389 16.2986 120.641 15.9577 120.829 15.5859V12.3324H118.314Z" fill="white"/>
</g>
<defs>
<clipPath id="clip0_444_586">
<rect width="128" height="22" fill="white"/>
</clipPath>
</defs>
</svg>
