<?xml version="1.0" encoding="utf-8"?>
<!-- Generator: Adobe Illustrator 28.0.0, SVG Export Plug-In . SVG Version: 6.00 Build 0)  -->
<svg version="1.1" id="Layer_1" xmlns="http://www.w3.org/2000/svg" xmlns:xlink="http://www.w3.org/1999/xlink" x="0px" y="0px"
	 width="100.9px" height="30.5px" viewBox="0 0 100.9 30.5" enable-background="new 0 0 100.9 30.5" xml:space="preserve">
<g>
	<path fill="#FFFFFF" d="M25.7,9.2L25.7,9.2c0.8,1.9,1.2,3.9,1.2,6v0.4c-0.1,2-0.5,3.9-1.2,5.7C25,23,23.9,24.6,22.4,26
		c-3,3-6.6,4.5-10.8,4.5S3.9,29,0.9,26l-0.2-0.2l-0.2-0.2c-0.2-0.2-0.3-0.5-0.3-0.9c0-0.4,0.1-0.8,0.4-1c0.3-0.3,0.7-0.4,1-0.4
		c0.3,0,0.5,0.1,0.7,0.2l0.6,0.6L3,24c2.4,2.4,5.2,3.5,8.6,3.5c3.4,0,6.3-1.2,8.7-3.6c0.9-0.9,1.6-1.8,2.1-2.7
		c0.9-1.7,1.5-3.5,1.5-5.6v-0.4c0-3.4-1.2-6.3-3.6-8.7c-2.2-2.2-4.8-3.4-7.8-3.6l-0.9,0C9.2,2.9,6.9,3.6,5,4.8
		c-0.7,0.5-1.4,1-2.1,1.7L2.3,7.2C2,7.3,1.8,7.4,1.5,7.4c-0.4,0-0.8-0.2-1.1-0.5C0.1,6.6,0,6.3,0,5.9c0-0.3,0.1-0.6,0.2-0.8l0.4-0.4
		l0.2-0.2c1.3-1.3,2.6-2.2,4.1-3c2-1,4.2-1.5,6.7-1.5l0.9,0c3.8,0.2,7.1,1.7,9.9,4.4C23.9,5.9,25,7.5,25.7,9.2L25.7,9.2z M12.9,11.7
		L12.9,11.7c1.6,0,3,0.6,4.2,1.8c0.3,0.3,0.6,0.7,0.9,1.1c0.2,0.3,0.3,0.7,0.5,1c0.2,0.7,0.4,1.4,0.4,2.2c0,1.2-0.3,2.3-0.9,3.2
		l-0.1,0l-0.3,0.5l-0.5,0.5c-1.2,1.2-2.6,1.8-4.3,1.9l-4.2-0.1l0.2,0c-0.4,0-0.8-0.2-1-0.5c-0.3-0.3-0.4-0.6-0.4-1
		c0-0.4,0.1-0.8,0.4-1L8,21.3c0.2-0.2,0.5-0.2,0.8-0.2l4.8-0.2c0.4-0.2,0.7-0.4,1-0.8c0.7-0.6,0.9-1.4,0.9-2.3
		c0-0.9-0.3-1.6-0.8-2.2l-0.1-0.1c-0.4-0.5-0.9-0.8-1.5-0.9c-1.4-0.1-2.9-0.1-4.3,0H8.6c-0.2,0-0.5-0.1-0.7-0.2l-0.2-0.2
		c-0.3-0.2-0.4-0.5-0.4-0.8v-0.1V7.5c0-0.4,0.1-0.7,0.4-1c0.3-0.3,0.7-0.4,1-0.4c0.4,0,0.7,0.1,1,0.4c0.3,0.3,0.5,0.6,0.5,1v4.9
		C11,12,11.9,11.7,12.9,11.7L12.9,11.7z M9.8,16.4L9.8,16.4c0.4,0,0.8,0.1,1,0.4s0.5,0.7,0.5,1s-0.2,0.8-0.5,1
		c-0.3,0.3-0.6,0.5-1,0.5H9.6c-0.3-0.1-0.6-0.2-0.9-0.5c-0.3-0.3-0.4-0.6-0.4-1c0-0.4,0.1-0.8,0.4-1c0.2-0.2,0.5-0.4,0.9-0.4
		L9.8,16.4L9.8,16.4z"/>
	<g>
		<path fill="#FFFFFF" d="M53.7,20.1c0,2.3-0.7,4.1-2.2,5.2c-1.4,1.1-3.2,1.6-5.6,1.6h-9.6c-2.5,0-3.8-1.1-3.8-3.3V7.1
			c0-1,0.4-1.8,1.1-2.3C34.2,4.2,35,4,36.1,4h9.3c4.8,0,7.2,1.8,7.2,5.5c0,1.3-0.3,2.3-0.8,3.1c-0.5,0.8-1.4,1.5-2.5,2.1
			c1.2,0.1,2.3,0.7,3.1,1.8C53.2,17.7,53.7,18.9,53.7,20.1z M48.4,10.5c0-1.7-0.9-2.6-2.8-2.6h-6.3c-1.6,0-2.4,0.8-2.4,2.3v3h8.8
			c0.8,0,1.5-0.2,2-0.7C48.1,12,48.4,11.3,48.4,10.5z M49.4,20c0-1.9-1.2-2.9-3.5-2.9h-9.1v3.7c0,1.5,0.8,2.2,2.3,2.2h6.8
			c1,0,1.9-0.2,2.5-0.7C49.1,21.8,49.4,21,49.4,20z"/>
		<path fill="#FFFFFF" d="M76.4,24.8c0,1.4-0.6,2.2-1.8,2.2c-0.8,0-1.5-0.4-2.1-1.1L61.1,11.2v13.8c0,1.4-0.7,2.1-2.1,2.1
			c-1.3,0-1.9-0.7-1.9-2.1V6.1C57,4.7,57.7,4,59,4c0.9,0,1.6,0.3,2.2,1l11.3,14.5V6.1C72.4,4.7,73,4,74.3,4c1.4,0,2.1,0.7,2.1,2.1
			L76.4,24.8L76.4,24.8z"/>
		<path fill="#FFFFFF" d="M100.9,24.5c0,1.8-0.7,2.7-2.2,2.7c-1.4,0-2-0.9-2-2.7c-1.6,1.7-4.1,2.7-7,2.7c-3.2,0-5.6-1.2-7.4-3.5
			c-1.7-2.1-2.6-4.8-2.6-8.1c0-3.5,0.9-6.3,2.7-8.4c1.9-2.3,4.6-3.4,8.1-3.4c3.7,0,6.7,1.4,8.7,3.4c1.1,1.1,1.6,2.1,1.6,3
			c0,0.5-0.2,0.9-0.5,1.3c-0.3,0.3-0.7,0.5-1.2,0.5c-0.9,0-1.6-0.3-2.2-1.1c-1.6-2-4-3.4-6.7-3.4c-2,0-3.6,0.9-4.8,2.6
			c-1.1,1.5-1.7,3.3-1.7,5.4c0,2.3,0.5,4.1,1.6,5.5c1.2,1.6,2.9,2.4,5,2.4c3,0,5.1-1.6,6.2-4.7h-4c-1.2,0-1.8-0.6-1.8-1.8
			c0-1.2,0.6-1.8,1.8-1.8h5.6c1.7,0,2.6,0.8,2.6,2.4V24.5z"/>
	</g>
</g>
</svg>
