<svg width="142" height="52" viewBox="0 0 142 52" fill="none" xmlns="http://www.w3.org/2000/svg">
<g clip-path="url(#clip0_4253_777)">
<path d="M42.7807 29.2476C44.6896 31.305 47.0407 32.328 49.8436 32.328C51.0344 32.328 52.3802 32.0208 53.8777 31.4176L54.1133 26.9248L40.9202 26.4342C41.3849 27.4669 42.011 28.4176 42.7807 29.2476ZM20.164 25.6653L18.6746 31.8873H25.6568L26.2119 28.7039H30.7607L31.2642 31.8873H38.2464L37.0652 26.2991L20.164 25.6653ZM27.0929 6.23035L22.5764 25.0621L39.4647 25.6959L35.3483 6.22878L27.0929 6.23035ZM29.5166 22.7377L30.1943 18.8079L30.6671 15.7677C30.6768 15.7162 30.6978 15.5521 30.7285 15.2964C30.7591 15.0406 30.8108 14.5693 30.8931 13.905C30.9334 13.5672 30.9753 13.2599 31.0157 12.9832C31.056 12.7065 31.0883 12.4508 31.1077 12.2159L31.3239 14.5902C31.3755 15.0808 31.4159 15.4813 31.4578 15.7982C31.4885 16.1151 31.5191 16.3709 31.5401 16.5559C31.7451 18.2031 31.858 19.1457 31.879 19.3806C31.8887 19.5237 31.9096 19.6781 31.9403 19.8213L32.3824 22.7489L29.5166 22.7377ZM51.333 24.7742C50.7892 24.4669 50.3261 24.0374 49.9985 23.505C49.608 22.8808 49.3208 22.1956 49.1675 21.4781C48.9626 20.587 48.869 19.6669 48.8803 18.7564C48.8803 16.6588 49.2708 15.01 50.0502 13.8229C50.8312 12.6454 51.909 12.0519 53.2952 12.0519C54.3521 12.0519 55.3897 12.5537 56.3853 13.5559V6.40251C55.3171 6.00358 54.1875 5.79926 53.0483 5.788C49.6903 5.788 47.0117 6.97514 44.9995 9.35907C42.9873 11.7542 41.9916 14.9167 41.9916 18.8674C41.9916 21.6004 42.4435 23.9232 43.3358 25.8471L56.5289 26.3377L56.6725 23.5951C55.4913 24.6792 54.3214 25.2229 53.1612 25.2229C52.5141 25.2149 51.8977 25.0717 51.333 24.7742ZM80.8512 17.7543C81.1998 18.3687 81.621 18.9318 82.1147 19.4433C82.6892 20.0465 83.3266 20.5902 83.993 21.0905L85.0919 21.9495C85.8923 22.5832 86.2924 23.2396 86.2924 23.9152C86.3021 24.3656 86.0972 24.7951 85.7373 25.0717C85.3372 25.3886 84.824 25.5527 84.3109 25.5318C82.7715 25.5318 81.3337 24.6213 79.9992 22.8101V27.2111L92.0015 27.6615C92.6889 26.3827 93.0487 24.9189 93.0487 23.2395C93.0487 21.787 92.7405 20.5275 92.1047 19.4417C91.4883 18.3575 90.4717 17.3023 89.0453 16.2792L87.9771 15.4813C87.0637 14.8154 86.6006 14.151 86.6006 13.4851C86.6006 13.0749 86.7959 12.6872 87.1138 12.4315C87.4623 12.1242 87.9254 11.9602 88.3966 11.9811C89.0743 11.9811 89.773 12.2272 90.4701 12.7178C91.2188 13.2599 91.8562 13.9468 92.3484 14.7334V7.05718C90.7154 6.20785 89.0937 5.77838 87.4929 5.77838C85.6857 5.77838 84.1463 6.32046 82.8731 7.40626C82.4116 7.78428 81.9905 8.22502 81.6419 8.71564C80.5334 10.2615 79.917 12.113 79.896 14.0175C79.896 14.6722 79.9686 15.3269 80.1219 15.9623C80.2961 16.5865 80.5317 17.1913 80.8512 17.7543ZM0 31.8986H6.75627V25.1747L0 24.9189V31.8986ZM12.3814 24.6937L19.1377 24.9495V6.23035H12.3814V15.0937H9.15737V6.23035H2.40105V24.3157L9.15737 24.5715V21.2143H12.3814V24.6937ZM9.97871 31.8986H16.735V25.5431L9.97871 25.2873V31.8986ZM70.4304 6.23035L66.4463 16.9773L66.6206 6.23035H59.8643V26.4535L66.548 26.6996L66.4447 19.7296L69.1862 26.7913L76.2394 27.0567L72.1537 18.3157L77.5433 6.21749C77.5659 6.23036 70.4304 6.23035 70.4304 6.23035ZM99.9567 6.23035L94.7931 27.7532L112.903 28.4289L108.21 6.23035H99.9567ZM102.39 22.7377L103.068 18.8079L103.541 15.7677C103.55 15.7162 103.571 15.5521 103.602 15.2964C103.633 15.0406 103.684 14.5693 103.767 13.905C103.807 13.5672 103.849 13.2599 103.889 12.9832C103.929 12.7065 103.962 12.4508 103.981 12.2159L104.197 14.5902C104.249 15.0808 104.289 15.4813 104.331 15.7982C104.362 16.1151 104.393 16.3709 104.414 16.5559C104.619 18.2031 104.731 19.1457 104.752 19.3806C104.762 19.5237 104.783 19.6781 104.814 19.8213L105.256 22.7489L102.39 22.7377ZM116.897 31.8986H123.467L123.797 29.5243L116.301 29.2476L116.897 31.8986ZM57.4632 27.0567V31.897H64.2195L64.1469 27.3125L57.4632 27.0567ZM135.399 6.23035L134.167 14.0095C133.993 15.0937 133.838 16.3017 133.695 17.632C133.551 18.9623 133.428 20.4873 133.304 22.2068C132.904 18.3784 132.431 15.0631 131.897 12.2594L130.767 6.24165H124.957L123.693 13.395C123.333 15.462 123.046 17.6417 122.82 19.9355L122.615 21.9012L122.389 19.609C122.225 18.0438 121.938 15.8835 121.516 13.1312L120.418 6.23359H113.744L118.723 28.6476L126.219 28.9243L127.163 22.2004C127.276 21.4428 127.358 20.7269 127.44 20.0417C127.522 19.3564 127.584 18.7114 127.635 18.0969C127.748 16.8889 127.821 16.0605 127.882 15.6101C127.903 15.8256 127.944 16.1425 127.995 16.5511C128.047 16.9613 128.118 17.4728 128.191 18.0969C128.344 19.3452 128.57 20.809 128.868 22.5077L130.028 29.0578L137.328 29.3345L142 6.22392L135.399 6.23035ZM128.007 31.8986H134.516L134.916 29.9441L127.616 29.6675L128.007 31.8986ZM103.642 28.7763L104.134 31.8986H111.115L110.51 29.0321L103.642 28.7763ZM77.6062 31.2841C79.4232 31.9903 81.1175 32.3377 82.7085 32.3377C85.0079 32.3377 86.9072 31.5399 88.4063 29.9329C88.8791 29.431 89.2792 28.8584 89.6068 28.2551L77.6046 27.8047V31.2841H77.6062ZM66.7852 27.4058L68.5311 31.8986H75.8199L73.848 27.6712L66.7852 27.4058ZM91.548 31.8986H98.5302L99.0853 28.7152L92.4017 28.3565L91.548 31.8986ZM6.6627 40.2182H11.0566C11.0566 40.6267 11.0356 41.0466 11.005 41.4568C10.9743 41.8043 10.892 42.1533 10.7791 42.4911C10.6355 42.9206 10.4096 43.3195 10.132 43.6782C9.86576 44.016 9.54624 44.3137 9.17672 44.5373C8.8072 44.7721 8.39574 44.9474 7.97619 45.0584C7.52438 45.1807 7.06288 45.2434 6.59977 45.2434C5.98336 45.2531 5.36855 45.1405 4.7828 44.9153C4.25998 44.711 3.77588 44.3941 3.37569 43.9935C2.97551 43.585 2.66734 43.1024 2.46241 42.5715C2.2365 41.9876 2.12353 41.3635 2.13321 40.7297C2.12353 40.1056 2.23647 39.4815 2.45108 38.8975C2.65602 38.3651 2.96424 37.8841 3.36442 37.4755C3.77428 37.0766 4.25838 36.7597 4.79088 36.5538C5.38631 36.3286 6.02368 36.216 6.65945 36.2257C7.48079 36.2047 8.28119 36.4107 9.00087 36.7983C9.69957 37.2182 10.2643 37.8423 10.5919 38.5887L8.48769 39.4589C8.34408 39.0487 8.07625 38.7013 7.72771 38.4552C7.40982 38.2509 7.04027 38.1479 6.65945 38.1479C6.35125 38.1479 6.04305 38.209 5.75582 38.3329C5.48957 38.4552 5.25239 38.6402 5.05714 38.8654C4.85221 39.1115 4.69725 39.3978 4.60528 39.6938C4.49232 40.0412 4.4407 40.4096 4.4407 40.778C4.4407 41.1158 4.48107 41.4632 4.58435 41.7817C4.66664 42.0793 4.81023 42.3447 5.00548 42.5908C5.19105 42.816 5.4363 42.9994 5.70416 43.1233C6.01237 43.2568 6.33994 43.3179 6.6788 43.3083C6.89503 43.3083 7.09998 43.2874 7.3146 43.2359C7.50985 43.1957 7.69381 43.1136 7.8584 43.001C8.02299 42.8884 8.1569 42.7453 8.25856 42.5715C8.37151 42.3769 8.44413 42.1613 8.47479 41.9377H6.65783V40.2182H6.6627ZM33.6443 43.5142H30.4816L29.9781 44.9989H27.6174L30.8624 36.4525H33.2861L36.5311 44.9989H34.1704L33.6443 43.5142ZM33.0489 41.8252L32.0532 38.9796L31.0576 41.8252H33.0489ZM53.3759 44.9989L54.8233 36.4525H57.021L58.725 41.0064L60.4194 36.4525H62.6171L64.0646 44.9989H61.8571L61.1278 40.0863L59.1155 44.9989H58.2329L56.324 40.0863L55.5849 44.9989H53.3759ZM83.9607 36.4525V44.9989H81.7436V36.4525H83.9607ZM102.021 44.9989V36.4525H104.238L108.335 41.6724V36.4525H110.542V44.9989H108.335L104.238 39.779V44.9989H102.021ZM132.902 40.2182H137.296C137.296 40.6686 137.275 41.0884 137.235 41.4568C137.204 41.8043 137.122 42.1533 137.009 42.4911C136.865 42.9206 136.639 43.3195 136.362 43.6782C136.096 44.016 135.776 44.3137 135.407 44.5373C135.037 44.7721 134.626 44.9474 134.206 45.0584C133.754 45.1807 133.293 45.2434 132.83 45.2434C132.213 45.2531 131.598 45.1405 131.013 44.9153C130.49 44.711 130.007 44.3941 129.606 43.9935C129.205 43.585 128.897 43.1024 128.692 42.5715C128.261 41.3844 128.25 40.0847 128.683 38.8975C128.888 38.3651 129.196 37.8745 129.596 37.4755C130.007 37.0766 130.49 36.7597 131.022 36.5538C131.618 36.3286 132.254 36.216 132.891 36.2257C133.712 36.2047 134.513 36.4107 135.232 36.7983C135.931 37.2182 136.496 37.8423 136.823 38.5887L134.719 39.4589C134.576 39.0487 134.309 38.7013 133.959 38.4552C133.641 38.2509 133.272 38.1479 132.891 38.1479C132.583 38.1479 132.275 38.209 131.987 38.3329C131.721 38.4552 131.484 38.6402 131.289 38.8654C131.084 39.1115 130.929 39.3978 130.837 39.6938C130.724 40.0412 130.672 40.4096 130.672 40.778C130.672 41.1158 130.713 41.4632 130.816 41.7817C130.898 42.0793 131.042 42.3447 131.237 42.5908C131.423 42.816 131.668 42.9994 131.936 43.1233C132.244 43.2568 132.572 43.3179 132.91 43.3083C133.127 43.3083 133.332 43.2874 133.546 43.2359C133.741 43.1957 133.925 43.1136 134.09 43.001C134.254 42.8884 134.388 42.7453 134.49 42.5715C134.603 42.3769 134.676 42.1613 134.706 41.9377H132.889V40.2182H132.902Z" fill="white"/>
</g>
<defs>
<clipPath id="clip0_4253_777">
<rect width="142" height="52" fill="white"/>
</clipPath>
</defs>
</svg>
