<svg width="142" height="52" viewBox="0 0 142 52" fill="none" xmlns="http://www.w3.org/2000/svg">
<g clip-path="url(#clip0_4253_739)">
<path d="M11.5513 30.3728C14.8543 28.7249 18.0848 27.114 21.4002 25.4615C15.5813 22.5519 9.82724 19.6885 4.00219 16.782C3.99448 17.0021 3.98368 17.1575 3.98368 17.3129C3.98214 19.6701 3.98213 22.0273 3.98213 24.3845C3.98213 28.6496 3.98056 32.9131 3.98519 37.1782C3.98519 37.6814 3.8988 38.1506 3.59165 38.5645C3.08385 39.2476 2.22257 39.5231 1.35977 39.263C0.509319 39.0076 -0.00153998 38.1275 3.48753e-06 37.4152C0.0108078 29.445 0.00614872 21.4749 0.00923565 13.5047C0.00923565 12.1677 1.32117 11.2383 2.60842 11.6568C2.77666 11.7107 2.93874 11.7876 3.09617 11.8676C10.9216 15.7681 18.7454 19.6716 26.5723 23.569C27.2206 23.8921 27.6867 24.3414 27.8333 25.0722C27.9954 25.8861 27.6419 26.7108 26.935 27.1509C26.8193 27.2232 26.6958 27.2817 26.5739 27.3417C21.2643 29.9912 15.9532 32.6377 10.6453 35.2918C10.1251 35.5519 9.59882 35.6796 9.02619 35.518C8.13407 35.2688 7.56142 34.5209 7.55988 33.5839C7.55525 30.8867 7.55525 28.188 7.55988 25.4907C7.56142 24.3552 8.42733 23.4767 9.53862 23.469C10.6515 23.4613 11.5389 24.3244 11.5497 25.4584C11.5636 26.9155 11.5528 28.3741 11.5528 29.8312C11.5513 29.9835 11.5513 30.1328 11.5513 30.3728Z" fill="white"/>
<path d="M103.105 19.3291C104.553 19.3291 106.001 19.326 107.449 19.3306C108.086 19.3336 108.552 19.7168 108.679 20.3184C108.824 21.0031 108.336 21.6847 107.639 21.7647C107.436 21.7878 107.23 21.7924 107.026 21.7924C104.444 21.7939 101.863 21.7939 99.2807 21.7939C99.1572 21.7939 99.0337 21.7863 98.9118 21.8001C98.6386 21.8309 98.4796 21.9801 98.4735 22.2479C98.4611 22.751 98.4611 23.2557 98.4735 23.7603C98.4796 24.025 98.634 24.1773 98.9056 24.2142C99.0538 24.2342 99.205 24.2327 99.3548 24.2327C101.596 24.2342 103.835 24.2589 106.075 24.2235C107.489 24.2019 109 25.2297 109.097 26.9945C109.137 27.7116 109.14 28.4439 109.048 29.1532C108.855 30.6303 107.509 31.572 106.316 31.5782C105.319 31.5843 104.322 31.5997 103.326 31.6012C101.564 31.6043 99.8024 31.6027 98.0397 31.6012C97.8484 31.6012 97.6585 31.5843 97.4671 31.5766C96.9609 31.5551 96.3666 31.0104 96.4052 30.3365C96.4407 29.7179 96.8682 29.2102 97.4795 29.144C97.6014 29.1317 97.7249 29.1379 97.8484 29.1379C100.485 29.1379 103.121 29.1379 105.757 29.1379C106.543 29.1379 106.658 29.0225 106.658 28.2424C106.658 27.97 106.662 27.6977 106.658 27.4254C106.652 26.8515 106.501 26.6976 105.928 26.6976C103.852 26.6961 101.775 26.6976 99.699 26.6961C99.3857 26.6961 99.0708 26.6822 98.7575 26.6714C97.1445 26.6176 95.9514 25.1744 95.9977 23.7804C96.0147 23.2634 96.0178 22.7448 95.9977 22.2279C95.9468 20.9031 97.0797 19.346 98.8825 19.3291C100.292 19.3183 101.698 19.3291 103.105 19.3291Z" fill="white"/>
<path d="M118.906 31.5825C117.635 31.5825 116.365 31.6117 115.096 31.5748C113.598 31.5317 112.363 30.2608 112.35 28.7545C112.33 26.5604 112.332 24.3662 112.35 22.1737C112.364 20.6243 113.667 19.3411 115.217 19.3349C117.675 19.3241 120.134 19.3257 122.593 19.3349C124.081 19.3395 125.331 20.5243 125.447 22.0106C125.462 22.2137 125.47 22.4183 125.47 22.623C125.471 24.5709 125.465 26.5203 125.473 28.4683C125.478 29.3868 125.204 30.1838 124.519 30.8147C124.011 31.284 123.412 31.5717 122.713 31.5794C121.446 31.5917 120.176 31.5825 118.906 31.5825ZM118.89 21.7952C117.949 21.7952 117.007 21.7952 116.064 21.7952C115.832 21.7952 115.599 21.789 115.368 21.7967C114.984 21.8106 114.834 21.9675 114.817 22.3537C114.812 22.4491 114.815 22.5445 114.815 22.6399C114.815 24.5186 114.815 26.3973 114.815 28.2775C114.815 29.056 114.9 29.1422 115.687 29.1422C117.844 29.1437 120.001 29.1422 122.158 29.1422C122.267 29.1422 122.377 29.1437 122.485 29.1314C122.824 29.0945 122.966 28.9499 122.996 28.6114C123.003 28.516 123 28.4206 123 28.3252C123 26.4188 123 24.5124 123 22.6061C123 22.4707 123.002 22.3322 122.979 22.1983C122.939 21.9644 122.807 21.8383 122.573 21.8029C122.466 21.7875 122.355 21.7921 122.246 21.7921C121.128 21.7952 120.009 21.7952 118.89 21.7952Z" fill="white"/>
<path d="M139.535 27.5098C139.535 27.2928 139.535 27.1482 139.535 27.0051C139.535 24.8664 139.534 22.7261 139.537 20.5874C139.537 19.9951 139.87 19.5381 140.393 19.3827C141.177 19.1488 141.943 19.6781 141.999 20.4921C142.005 20.5736 142 20.6552 142 20.7367C142 23.8848 142 27.0313 141.999 30.1793C141.999 30.3409 141.995 30.5101 141.955 30.6655C141.718 31.5887 140.633 31.9056 139.909 31.2579C139.248 30.667 138.603 30.0593 137.95 29.4592C135.823 27.5021 133.696 25.5434 131.569 23.5862C131.521 23.5432 131.467 23.5062 131.364 23.4262C131.355 23.6201 131.342 23.7632 131.342 23.9047C131.341 26.0173 131.339 28.1283 131.344 30.2409C131.346 30.7086 131.207 31.1025 130.815 31.3733C130.409 31.6533 129.964 31.6733 129.534 31.4549C129.097 31.2333 128.876 30.8578 128.876 30.3608C128.878 28.6991 128.876 27.0359 128.876 25.3741C128.876 23.7801 128.873 22.1861 128.878 20.592C128.879 19.9212 129.293 19.4304 129.93 19.3381C130.352 19.2766 130.703 19.4243 131.012 19.7089C131.963 20.589 132.917 21.4645 133.871 22.3415C135.656 23.9863 137.441 25.6311 139.226 27.2744C139.304 27.3421 139.392 27.399 139.535 27.5098Z" fill="white"/>
<path d="M39.3633 27.5163C39.3633 27.7056 39.3633 27.8395 39.3633 27.9718C39.3633 28.7211 39.3633 29.4704 39.3633 30.2197C39.3633 30.5398 39.3047 30.8444 39.1055 31.106C38.7783 31.5353 38.2227 31.6984 37.7118 31.5306C37.2565 31.3814 36.8891 30.866 36.8906 30.3782C36.9045 27.1086 36.8968 23.8405 36.8984 20.5725C36.8984 19.8401 37.3923 19.3462 38.1254 19.3308C38.2489 19.3277 38.3708 19.3308 38.4943 19.3308C41.0611 19.3308 43.6279 19.3292 46.1962 19.3308C47.7814 19.3323 49.0424 20.4325 49.1658 22.0142C49.2384 22.9481 49.2338 23.8959 49.1643 24.8299C49.0671 26.1639 48.1425 27.1686 46.8383 27.4425C46.508 27.5117 46.1607 27.5148 45.8212 27.5163C43.8409 27.5225 41.8606 27.5194 39.8803 27.5194C39.7198 27.5164 39.5609 27.5163 39.3633 27.5163ZM39.3787 25.0207C39.4729 25.0345 39.5254 25.0499 39.5778 25.0499C41.7464 25.0514 43.915 25.0545 46.0836 25.0484C46.5481 25.0468 46.7256 24.8622 46.7318 24.3991C46.7411 23.7728 46.7364 23.1481 46.7333 22.5219C46.7303 21.948 46.5759 21.7942 46.0064 21.7942C43.9335 21.7926 41.8606 21.7926 39.7877 21.7942C39.655 21.7942 39.5238 21.808 39.3787 21.8157C39.3787 22.8989 39.3787 23.9421 39.3787 25.0207Z" fill="white"/>
<path d="M73.1951 23.0348C73.0978 23.1948 73.0253 23.3072 72.9574 23.4226C71.505 25.9029 70.051 28.3831 68.6033 30.8665C68.344 31.3111 67.9951 31.5835 67.458 31.5943C66.6569 31.6081 65.9624 30.8096 66.3329 29.8633C66.3714 29.7633 66.4347 29.671 66.4887 29.5771C68.3239 26.4368 70.1606 23.2964 71.9974 20.1576C72.039 20.0868 72.0791 20.016 72.1224 19.9468C72.661 19.1067 73.7554 19.1128 74.2817 19.9652C74.5672 20.4284 74.8327 20.9053 75.109 21.3762C76.7111 24.1165 78.3133 26.8568 79.9185 29.5956C80.1098 29.9218 80.2379 30.2556 80.1391 30.6418C80.0157 31.1203 79.7193 31.445 79.2439 31.5558C78.7608 31.6696 78.3194 31.5527 77.9906 31.1527C77.9042 31.048 77.8363 30.9296 77.7668 30.8111C76.3484 28.3893 74.933 25.9659 73.5146 23.5441C73.4204 23.3841 73.317 23.2287 73.1951 23.0348Z" fill="white"/>
<path d="M86.4774 25.1966C86.5792 25.0874 86.6718 24.992 86.7598 24.892C88.1906 23.2641 89.6198 21.6347 91.0506 20.0053C91.1402 19.9022 91.2281 19.7975 91.3254 19.7021C91.8131 19.2221 92.5432 19.1913 93.0247 19.6252C93.5433 20.093 93.6113 20.8038 93.1559 21.3454C92.5602 22.0547 91.9382 22.744 91.3269 23.441C90.2033 24.7227 89.0827 26.0059 87.9514 27.2799C87.7847 27.4676 87.7137 27.6523 87.7183 27.9C87.7322 28.6755 87.7245 29.4525 87.7229 30.2295C87.7214 30.6249 87.6241 30.9834 87.3185 31.2619C86.9219 31.6235 86.4604 31.6835 85.9881 31.4865C85.525 31.2927 85.258 30.928 85.258 30.4049C85.258 29.6017 85.2457 28.797 85.2642 27.9938C85.2719 27.7 85.1839 27.483 84.9894 27.2645C83.3009 25.3551 81.6247 23.4349 79.9392 21.5223C79.6784 21.2254 79.4931 20.9176 79.5132 20.4991C79.5379 19.996 79.7772 19.6437 80.2201 19.4406C80.6785 19.2298 81.1277 19.2805 81.5228 19.6083C81.6586 19.7206 81.7744 19.8575 81.8917 19.9899C83.3395 21.6393 84.7857 23.2887 86.2319 24.9381C86.306 25.0212 86.3817 25.0966 86.4774 25.1966Z" fill="white"/>
<path d="M54.8605 29.1411C55.072 29.1411 55.2325 29.1411 55.393 29.1411C57.6465 29.1411 59.9 29.1395 62.1534 29.1426C62.8418 29.1442 63.3218 29.5304 63.4376 30.1643C63.5611 30.8351 63.078 31.4967 62.3973 31.5767C62.209 31.5998 62.0161 31.6044 61.8247 31.6044C59.2162 31.606 56.6078 31.606 53.9978 31.6044C53.8203 31.6044 53.6427 31.5968 53.4668 31.5783C52.837 31.5121 52.3941 31.0352 52.3941 30.3982C52.3895 27.1009 52.3895 23.8051 52.3941 20.5078C52.3956 19.9046 52.8463 19.4123 53.4375 19.3354C54.041 19.2569 54.6105 19.6016 54.7741 20.1724C54.8359 20.3909 54.8544 20.6278 54.8544 20.8571C54.859 23.4312 54.8574 26.0069 54.8574 28.581C54.8605 28.7441 54.8605 28.9072 54.8605 29.1411Z" fill="white"/>
</g>
<defs>
<clipPath id="clip0_4253_739">
<rect width="142" height="52" fill="white"/>
</clipPath>
</defs>
</svg>
