<svg width="142" height="67" viewBox="0 0 142 67" fill="none" xmlns="http://www.w3.org/2000/svg">
<g clip-path="url(#clip0_4253_728)">
<path d="M122.386 25.3645C115.318 25.8017 118.492 34.9798 126.306 34.4953C133.949 34.0211 129.917 24.8977 122.386 25.3645Z" fill="white"/>
<path d="M119.406 19.6945C106.83 19.6945 96.6328 29.8579 96.6328 42.3967C96.6328 54.9354 106.828 65.0988 119.406 65.0988C131.983 65.0988 142.178 54.9354 142.178 42.3967C142.18 29.8594 131.984 19.6945 119.406 19.6945ZM119.406 62.719C108.151 62.7205 99.0231 53.6266 99.0216 42.4055C99.0201 31.1859 108.143 22.0862 119.399 22.0847C130.654 22.0832 139.782 31.1786 139.783 42.3981V42.4011C139.783 53.6207 130.66 62.7175 119.406 62.719ZM118.72 3.84678C113.314 7.921 114.254 14.1682 114.254 14.1682C114.254 14.1682 110.856 5.37572 106.443 6.10352e-05C105.847 6.91943 108.022 16.0871 108.022 16.0871C108.022 16.0871 105.259 10.4027 98.4881 10.0851C104.104 13.3025 106.283 19.0992 106.781 20.6547C110.127 18.5955 113.954 17.4403 117.886 17.3044C117.443 15.8582 115.869 9.7572 118.72 3.84678Z" fill="white"/>
<path d="M1.90069 44.6239V49.3747H-0.0820312V37.1343H4.09238C5.50757 37.1343 6.57154 37.4696 7.28432 38.1403C7.9971 38.8109 8.35425 39.7298 8.36018 40.8968C8.36018 42.0535 7.99414 42.9649 7.26506 43.6282C6.53598 44.2915 5.47942 44.6239 4.0998 44.6239H1.90069ZM6.33595 40.8968C6.33595 40.2025 6.14182 39.6736 5.75356 39.3088C5.36383 38.9439 4.7429 38.7622 3.8849 38.7637H1.90218V43.0107H3.8849C5.51792 43.0107 6.33298 42.3061 6.33595 40.8968ZM16.546 49.3747L13.4845 44.4865H12.0752V49.3747H10.0925V37.1343H14.424C15.8258 37.1343 16.8898 37.4755 17.616 38.1565C18.3421 38.8375 18.7037 39.7401 18.7022 40.8628C18.7022 41.8156 18.4324 42.6015 17.893 43.2205C17.3536 43.8394 16.5771 44.2324 15.5621 44.3978L18.7896 49.3747H16.546ZM12.0752 43.0801H14.2625C15.8644 43.0801 16.6646 42.3755 16.6631 40.9662C16.6631 40.2956 16.469 39.7741 16.0807 39.3974C15.691 39.0222 15.0879 38.8346 14.2625 38.8346H12.0752V43.0801ZM27.8172 46.7215H22.6336L21.694 49.3747H19.5735L24.0962 37.3248H26.3753L30.8802 49.3747H28.7567L27.8172 46.7215ZM27.26 45.197L25.2253 39.4772L23.1908 45.197H27.26ZM40.8962 38.1034C41.8698 38.8198 42.5544 39.8598 42.8271 41.0342H40.7405C40.4812 40.3842 40.0204 39.8317 39.4261 39.4565C38.7786 39.0532 38.0258 38.8464 37.2611 38.8671C36.538 38.8553 35.8252 39.0399 35.1984 39.4033C34.5863 39.7638 34.0914 40.2941 33.7728 40.9278C33.4171 41.6531 33.2452 42.4523 33.269 43.2589C33.2452 44.0935 33.4245 44.9193 33.7906 45.6697C34.1151 46.3153 34.6264 46.8501 35.2591 47.2031C35.9334 47.568 36.6921 47.7541 37.4597 47.7393C38.4229 47.7556 39.358 47.4144 40.0826 46.7806C40.8117 46.1513 41.2518 45.2886 41.4044 44.1881H36.8951V42.7315H43.0686V44.6209C42.9382 45.5028 42.6077 46.3404 42.1039 47.0746C41.5926 47.8162 40.9065 48.4203 40.1048 48.8354C39.2261 49.286 38.2495 49.5105 37.2611 49.4928C36.1527 49.5165 35.0591 49.2402 34.0944 48.6951C33.1904 48.1751 32.4539 47.4085 31.9738 46.4837C30.9765 44.4422 30.9765 42.0579 31.9738 40.0164C32.4525 39.096 33.186 38.3323 34.0855 37.8138C35.0487 37.2761 36.1379 37.0028 37.2434 37.025C38.7045 37.0294 39.9226 37.3869 40.8962 38.1034ZM57.0723 37.3248V49.3747H55.0718V40.3428L51.5775 49.3747H49.8378L46.3228 40.3428V49.3747H44.3415V37.3248H46.7407L50.7417 46.9476L54.6716 37.3248H57.0723ZM66.7771 46.7215H61.6024L60.6628 49.3747H58.5349L63.0575 37.3248H65.3352L69.8416 49.3747H67.7181L66.7771 46.7215ZM66.2199 45.197L64.1853 39.4772L62.1506 45.197H66.2199ZM78.3253 37.1328V38.7267H74.8992V49.3732H72.8987V38.7267H69.4918V37.1328H78.3253ZM81.3691 37.1328V49.3732H79.3878V37.1328H81.3691ZM92.5883 38.1565C93.5945 38.9335 94.3058 40.0282 94.6051 41.2617H92.4994C92.2297 40.5467 91.7481 39.9322 91.1168 39.5008C90.4278 39.0502 89.6172 38.8227 88.7947 38.8508C88.1042 38.8405 87.4269 39.0266 86.8386 39.3871C86.2503 39.7623 85.7806 40.2926 85.4813 40.9204C84.8218 42.4006 84.8218 44.0876 85.4813 45.5678C85.7806 46.1971 86.2503 46.7274 86.8386 47.1026C87.4269 47.4631 88.1042 47.6492 88.7947 47.6389C89.6172 47.6655 90.4278 47.438 91.1168 46.9904C91.7451 46.5635 92.2267 45.9549 92.4994 45.2473H94.6051C94.3073 46.4793 93.596 47.5695 92.5883 48.3421C91.591 49.0999 90.3403 49.4795 88.8318 49.4795C87.753 49.4987 86.689 49.2269 85.7524 48.6892C84.8648 48.1692 84.1461 47.404 83.6837 46.4866C82.7087 44.4407 82.7087 42.0668 83.6837 40.0193C84.1476 39.1005 84.8648 38.3338 85.7524 37.8079C86.686 37.2657 87.7515 36.9895 88.8318 37.0102C90.3373 37.0117 91.5895 37.3928 92.5883 38.1565ZM103.96 44.6239V49.3747H101.979V37.1343H106.153C107.566 37.1343 108.63 37.4696 109.345 38.1403C110.061 38.8109 110.42 39.7298 110.421 40.8968C110.421 42.0535 110.055 42.9649 109.326 43.6282C108.597 44.2915 107.54 44.6239 106.161 44.6239H103.96ZM108.401 40.8968C108.401 40.2025 108.207 39.6736 107.819 39.3088C107.431 38.9439 106.808 38.7622 105.949 38.7637H103.96V43.0107H105.943C107.582 43.0107 108.401 42.3061 108.401 40.8968ZM113.822 47.8324H118.066V49.3747H111.839V37.1343H113.822V47.8324ZM127.146 46.7215H121.963L121.024 49.3747H118.9L123.425 37.3248H125.702L130.209 49.3747H128.085L127.146 46.7215ZM126.59 45.197L124.555 39.4772L122.521 45.197H126.59ZM138.168 37.1328L134.081 44.9178V49.3747H132.085V44.9178L127.98 37.1328H130.277L133.095 42.8024L135.912 37.1328H138.168Z" fill="white"/>
</g>
<defs>
<clipPath id="clip0_4253_728">
<rect width="142" height="66.5225" fill="white"/>
</clipPath>
</defs>
</svg>
