<svg width="142" height="52" viewBox="0 0 142 52" fill="none" xmlns="http://www.w3.org/2000/svg">
<g clip-path="url(#clip0_4253_973)">
<path d="M36.1565 8.21051C36.2601 13.0545 35.4334 17.7529 33.998 22.3615C33.8388 22.871 33.4881 22.775 33.145 22.775C28.6919 22.7781 24.2372 22.7765 19.7841 22.7765C16.7463 22.7765 13.7086 22.7657 10.6708 22.7874C10.1856 22.7905 9.91987 22.6635 9.76999 22.1834C9.46251 21.2063 9.10712 20.2446 8.73474 19.1714C16.2797 19.1714 23.7073 19.1714 31.2955 19.1714C31.7235 16.7525 32.1438 14.3832 32.5795 11.9256C22.8791 11.9256 13.347 11.9256 3.71454 11.9256C4.86568 23.2117 9.65102 32.5636 18.0829 40.1486C21.4235 37.2372 24.2048 33.9403 26.5581 30.0611C26.1409 30.0611 25.8705 30.0611 25.6016 30.0611C21.9721 30.0611 18.3409 30.0456 14.7114 30.0766C14.1165 30.0812 13.7658 29.9062 13.4799 29.3952C12.9437 28.4382 12.355 27.5121 11.7277 26.4745C18.7025 26.4745 25.512 26.4745 32.4173 26.4745C32.2689 26.8199 32.1577 27.1002 32.031 27.3743C28.9438 34.0766 24.4922 39.701 18.7241 44.2848C18.548 44.4242 18.3981 44.5977 18.2343 44.7541C18.1308 44.7541 18.0288 44.7541 17.9253 44.7541C17.7322 44.5605 17.556 44.3468 17.3443 44.1764C8.19239 36.7448 2.55877 27.238 0.602609 15.5787C0.338388 14.0115 0.197779 12.4227 0 10.8431C0 9.96506 0 9.08856 0 8.21051C12.0522 8.21051 24.1044 8.21051 36.1565 8.21051Z" fill="white"/>
<path d="M142.001 25.0907C141.956 25.1495 141.89 25.2006 141.87 25.2672C141.092 27.8332 139.091 29.1867 136.445 28.9281C133.778 28.6664 131.808 26.774 131.522 24.1956C131.242 21.6729 132.742 19.2711 135.117 18.5324C136.922 17.9703 138.637 18.201 140.159 19.3686C140.593 19.7016 140.935 20.1569 141.374 20.6137C140.718 20.9962 140.19 21.3044 139.669 21.6079C138.461 20.194 136.659 19.7883 135.057 20.7221C133.754 21.4809 133.207 23.1007 133.657 24.6478C134.073 26.0787 135.361 26.9583 137.029 26.9505C138.493 26.9428 139.513 26.2846 139.85 25.0365C138.867 25.0365 137.909 25.0365 136.919 25.0365C136.919 24.3938 136.919 23.8611 136.919 23.2339C138.623 23.2339 140.312 23.2339 142.001 23.2339C142.001 23.8518 142.001 24.4712 142.001 25.0907Z" fill="white"/>
<path d="M111.336 23.2895C112.148 21.9469 112.97 20.7003 113.668 19.3886C114.06 18.653 114.519 18.3 115.351 18.4424C115.644 18.492 115.953 18.4502 116.298 18.4502C116.298 21.8989 116.298 25.2671 116.298 28.6925C115.664 28.6925 115.037 28.6925 114.343 28.6925C114.343 26.5834 114.343 24.5067 114.343 22.4301C114.288 22.4084 114.232 22.3867 114.176 22.3635C113.268 23.8548 112.359 25.346 111.341 27.0201C110.343 25.391 109.431 23.9012 108.518 22.4099C108.47 22.4192 108.422 22.4301 108.374 22.4393C108.374 24.5067 108.374 26.5741 108.374 28.6941C107.654 28.6941 107.027 28.6941 106.359 28.6941C106.359 25.2826 106.359 21.9159 106.359 18.4533C106.974 18.4533 107.563 18.4068 108.138 18.4781C108.353 18.5044 108.589 18.7707 108.723 18.9844C109.593 20.3828 110.435 21.7982 111.336 23.2895Z" fill="white"/>
<path d="M94.7867 20.6818C94.2428 20.9993 93.7344 21.2935 93.1782 21.6172C92.4535 20.767 91.5774 20.1692 90.4556 20.2699C89.7634 20.3318 89.0109 20.4929 88.4299 20.8475C87.1861 21.6048 86.7272 23.3005 87.2139 24.7592C87.6882 26.1824 89.0294 27.0124 90.7461 26.9458C92.1027 26.8932 93.0715 26.2149 93.3883 25.021C92.4025 25.021 91.4383 25.021 90.4371 25.021C90.4371 24.4 90.4371 23.8688 90.4371 23.2788C92.0935 23.2788 93.7499 23.2788 95.4078 23.2788C96.046 25.9733 94.1918 28.4774 91.239 28.9002C88.3696 29.3121 85.6054 27.4058 85.1341 24.6927C84.5979 21.6048 86.3749 18.9226 89.3415 18.3403C91.5017 17.9176 93.8194 18.8854 94.7867 20.6818Z" fill="white"/>
<path d="M128.076 24.4106C128.076 22.4578 128.076 20.5066 128.076 18.5027C128.754 18.5027 129.378 18.5027 130.047 18.5027C130.047 21.9019 130.047 25.2685 130.047 28.632C128.797 28.9325 128.632 28.8705 127.93 27.8655C126.741 26.1605 125.549 24.4555 124.2 22.7768C124.2 24.7342 124.2 26.6917 124.2 28.6955C123.483 28.6955 122.878 28.6955 122.207 28.6955C122.207 25.301 122.207 21.9143 122.207 18.5337C123.136 18.2828 123.785 18.4733 124.341 19.3483C125.456 21.1013 126.707 22.7691 127.901 24.4725C127.958 24.4524 128.017 24.4323 128.076 24.4106Z" fill="white"/>
<path d="M79.8988 28.6284C79.7953 28.6919 79.7736 28.7135 79.7505 28.7166C77.9395 28.8947 77.9395 28.8947 77.9395 27.0922C77.9395 26.2482 77.9395 25.4042 77.9395 24.5184C76.6571 24.5184 75.4596 24.5184 74.1725 24.5184C74.1725 25.9091 74.1725 27.2857 74.1725 28.7027C73.4756 28.7027 72.8699 28.7027 72.207 28.7027C72.207 25.2958 72.207 21.9121 72.207 18.4882C72.8436 18.4882 73.4493 18.4882 74.1369 18.4882C74.1369 19.8045 74.1369 21.1053 74.1369 22.4696C75.4101 22.4696 76.603 22.4696 77.9179 22.4696C77.9179 21.1688 77.9179 19.8463 77.9179 18.4898C78.641 18.4898 79.2452 18.4898 79.8972 18.4898C79.8988 21.8982 79.8988 25.2648 79.8988 28.6284Z" fill="white"/>
<path d="M105.313 28.695C105.03 28.7197 104.879 28.7414 104.727 28.7445C103.35 28.777 103.329 28.7832 102.875 27.4654C102.72 27.0147 102.488 26.88 102.037 26.8924C101.034 26.9218 100.03 26.9234 99.0287 26.8909C98.5868 26.8769 98.3627 27.0271 98.2715 27.4499C98.2175 27.6992 98.0877 27.9331 98.0367 28.1839C97.9502 28.6098 97.7292 28.7848 97.2857 28.7538C96.8021 28.7182 96.3138 28.7461 95.668 28.7461C96.8794 25.2602 98.0552 21.8765 99.2218 18.5207C99.3192 18.4913 99.3671 18.465 99.4165 18.4619C101.714 18.3612 101.713 18.3628 102.474 20.5324C103.318 22.9358 104.168 25.3361 105.012 27.7395C105.112 28.026 105.194 28.3156 105.313 28.695ZM101.964 24.9334C101.481 23.5614 101.03 22.2823 100.515 20.825C100.022 22.3086 99.5973 23.5908 99.1523 24.9334C100.109 24.9334 100.972 24.9334 101.964 24.9334Z" fill="white"/>
<path d="M59.8739 18.4736C60.6094 18.4736 61.1981 18.4736 61.8146 18.4736C61.8486 18.6083 61.9073 18.7275 61.9073 18.8468C61.912 21.038 61.9583 23.2308 61.8934 25.4205C61.8285 27.649 60.2417 28.9916 57.876 28.9467C55.5738 28.9018 54.1043 27.4786 54.0827 25.2672C54.0734 24.287 54.0811 23.3083 54.0811 22.328C54.0811 21.069 54.0811 19.81 54.0811 18.5014C54.744 18.5014 55.3513 18.5014 56.0898 18.5014C56.0898 18.7508 56.0898 19.0202 56.0898 19.2881C56.0898 21.196 56.0837 23.1038 56.0914 25.0117C56.0976 26.3311 56.6847 26.9366 57.9456 26.949C59.2636 26.9629 59.86 26.3776 59.8708 25.0117C59.8847 23.1302 59.8755 21.2471 59.8755 19.3656C59.8739 19.0884 59.8739 18.8096 59.8739 18.4736Z" fill="white"/>
<path d="M68.9413 21.5408C68.4406 20.6194 67.7051 20.0743 66.6745 20.2942C66.2991 20.3747 65.8556 20.7293 65.6934 21.0762C65.4708 21.5501 65.8123 21.9775 66.2867 22.1726C67.0454 22.4839 67.8241 22.7471 68.5905 23.0367C70.335 23.6964 71.0473 24.6627 70.8974 26.1587C70.7506 27.6174 69.7138 28.5884 67.9894 28.8826C65.8 29.2558 63.8407 28.2415 63.2227 26.377C63.7418 26.0673 64.2687 25.7529 64.8791 25.389C65.3704 26.5117 66.245 27.0259 67.4456 26.9376C67.7237 26.9175 68.0157 26.871 68.266 26.758C69.0402 26.408 69.1097 25.4835 68.3773 25.0437C67.9647 24.7959 67.4873 24.6534 67.0299 24.4862C66.5246 24.2988 65.9962 24.1703 65.5018 23.9581C63.986 23.3062 63.4158 22.281 63.6553 20.7107C63.8438 19.4734 65.0104 18.4467 66.4119 18.2872C68.2413 18.0781 69.6706 18.8323 70.5915 20.5528C70.0615 20.8687 69.5269 21.1893 68.9413 21.5408Z" fill="white"/>
<path d="M47.6059 25.364C47.6059 26.5069 47.6059 27.5568 47.6059 28.6764C46.9291 28.6764 46.3064 28.6764 45.625 28.6764C45.625 25.299 45.625 21.9168 45.625 18.4991C47.0805 18.4991 48.5252 18.3783 49.9406 18.5285C51.8056 18.7268 52.9459 20.2738 52.8517 22.177C52.7667 23.8835 51.3822 25.2386 49.5636 25.3563C48.9502 25.3981 48.3321 25.364 47.6059 25.364ZM47.626 23.4298C48.3306 23.4298 48.9502 23.467 49.562 23.4205C50.2991 23.3648 50.8013 22.7794 50.843 22.0221C50.8878 21.2014 50.4598 20.5231 49.7073 20.4302C49.0321 20.3466 48.3383 20.4132 47.626 20.4132C47.626 21.4151 47.626 22.3845 47.626 23.4298Z" fill="white"/>
<path d="M118.266 18.4758C118.949 18.4758 119.536 18.4758 120.186 18.4758C120.186 21.8858 120.186 25.2679 120.186 28.6903C119.542 28.6903 118.915 28.6903 118.266 28.6903C118.266 25.2695 118.266 21.9044 118.266 18.4758Z" fill="white"/>
</g>
<defs>
<clipPath id="clip0_4253_973">
<rect width="142" height="52" fill="white"/>
</clipPath>
</defs>
</svg>
