<svg width="142" height="52" viewBox="0 0 142 52" fill="none" xmlns="http://www.w3.org/2000/svg">
<path d="M8.22252 43.7667C8.22252 45.4062 7.81138 46.4993 6.85201 47.319C6.30379 47.8655 5.48149 48.0021 4.38507 48.0021C3.01454 48.0021 2.05512 47.4556 1.2328 46.4992C0.547533 45.5429 0.273438 44.5865 0.273438 43.4935C0.273438 42.1273 0.547546 41.0343 1.36987 40.0779C1.78103 39.668 2.1922 39.2582 2.60336 38.9849C3.15157 38.7117 3.6998 38.575 4.38507 38.575C5.07033 38.575 5.61853 38.7117 6.30379 38.8483C6.852 38.9849 7.26318 39.2582 7.53729 39.668C7.67434 39.8047 7.6743 39.9413 7.6743 40.0779C7.6743 40.2145 7.67434 40.3512 7.53729 40.4878C7.40023 40.6244 7.26314 40.6244 7.12609 40.6244C6.98903 40.6244 6.85199 40.6244 6.71494 40.4878C6.30378 40.2146 6.02968 39.9413 5.75558 39.8047C5.34442 39.6681 5.0703 39.5314 4.52208 39.5314C3.56271 39.5314 2.74042 39.9413 2.19221 40.761C1.78105 41.4442 1.50693 42.2639 1.50693 43.2203C1.50693 44.5865 1.91809 45.5429 2.60336 46.3627C3.01452 46.7725 3.56274 47.0457 4.248 47.0457C4.65916 47.0457 5.20735 46.9091 5.61851 46.7725C6.57788 46.3626 7.12609 45.4063 7.12609 44.1767V43.7667H5.4815C5.20739 43.7667 4.93328 43.6301 4.93328 43.2203C4.93328 42.8104 5.07034 42.6738 5.4815 42.6738H7.53729C7.94845 42.6738 8.22252 43.0837 8.22252 43.6302V43.7667Z" fill="white"/>
<path d="M141.863 43.7667C141.863 45.4062 141.452 46.4993 140.493 47.319C139.944 47.8655 139.122 48.0021 138.026 48.0021C136.655 48.0021 135.696 47.4556 134.873 46.4992C134.188 45.5429 133.914 44.5865 133.914 43.4935C133.914 42.1273 134.188 41.0343 135.01 40.0779C135.422 39.668 135.833 39.2582 136.244 38.9849C136.792 38.7117 137.34 38.575 138.026 38.575C138.711 38.575 139.259 38.7117 139.944 38.8483C140.493 38.9849 140.904 39.2582 141.178 39.668C141.315 39.8047 141.315 39.9413 141.315 40.0779C141.315 40.2145 141.315 40.3512 141.178 40.4878C141.041 40.6244 140.904 40.6244 140.767 40.6244C140.63 40.6244 140.493 40.6244 140.356 40.4878C139.944 40.2146 139.67 39.9413 139.396 39.8047C138.985 39.6681 138.711 39.5314 138.163 39.5314C137.203 39.5314 136.381 39.9413 135.833 40.761C135.422 41.4442 135.147 42.2639 135.147 43.2203C135.147 44.5865 135.559 45.5429 136.244 46.3627C136.655 46.7725 137.203 47.0457 137.889 47.0457C138.3 47.0457 138.848 46.9091 139.259 46.7725C140.219 46.3626 140.767 45.4063 140.767 44.1767V43.7667H139.122C138.848 43.7667 138.574 43.6301 138.574 43.2203C138.574 42.8104 138.711 42.6738 139.122 42.6738H141.178C141.726 42.6738 142 42.947 142 43.4935V43.7667H141.863Z" fill="white"/>
<path d="M64.8409 47.3192C64.8409 47.8657 64.7038 48.1389 64.2926 48.1389C64.0185 48.1389 63.7444 48.0023 63.7444 47.5924L62.648 40.0765L60.4551 47.5924C60.3181 47.8657 60.181 48.0023 59.9069 48.0023C59.6328 48.0023 59.3587 47.8657 59.3587 47.5924L57.1659 40.0765L56.0694 47.5924C56.0694 48.0023 55.7953 48.1389 55.3842 48.1389C55.11 48.1389 54.8359 47.8657 54.8359 47.4558C54.8359 47.3192 54.8359 47.3192 54.8359 47.1826L56.2065 39.3933C56.2065 39.1201 56.3435 38.9835 56.4806 38.8468C56.6176 38.7102 56.8917 38.5736 57.0288 38.5736C57.3029 38.5736 57.44 38.5736 57.577 38.7102C57.7141 38.8468 57.8511 38.9834 57.8511 39.1201L59.7699 45.8163L61.6886 38.9835C61.6886 38.8469 61.8257 38.7102 61.9627 38.5736C62.0998 38.4369 62.2368 38.437 62.5109 38.437C62.785 38.437 62.9221 38.4369 63.0591 38.5736C63.1962 38.7102 63.3333 38.8468 63.3333 39.1201L64.8409 47.3192Z" fill="white"/>
<path d="M86.2175 47.4543C86.2175 47.8642 86.0805 48.1374 85.6693 48.1374C85.2581 48.1374 85.1211 48.0008 85.1211 47.5909V39.3918C85.1211 38.982 85.2581 38.8453 85.6693 38.8453C86.0805 38.8453 86.2175 38.982 86.2175 39.3918V47.4543Z" fill="white"/>
<path d="M113.768 47.4539C113.768 47.8638 113.631 48.0003 113.219 48.0003C112.945 48.0003 112.808 47.8637 112.534 47.5905L107.6 40.621V47.3173C107.6 47.7271 107.463 47.8637 107.052 47.8637C106.641 47.8637 106.504 47.7271 106.504 47.3173V39.1181C106.504 38.7083 106.641 38.5716 106.915 38.5716C107.189 38.5716 107.326 38.7083 107.6 38.9815L112.397 45.951V39.2548C112.397 39.1181 112.397 38.9815 112.534 38.8449C112.671 38.7083 112.808 38.7083 112.945 38.7083C113.357 38.7083 113.494 38.8449 113.494 39.2548V47.4539H113.768Z" fill="white"/>
<path d="M35.3628 47.5909C35.3628 47.8642 35.2257 48.0008 34.8146 48.0008C34.6775 48.0008 34.5405 48.0008 34.4034 47.8642C34.2664 47.8642 34.2664 47.8642 34.2664 47.7276L33.7182 46.0881H29.4695L28.6472 47.7276C28.5102 48.0008 28.3731 48.1374 28.099 48.1374C27.8249 48.1374 27.5508 48.0008 27.5508 47.7276V47.5909V47.4543L30.5659 39.5285C30.703 39.2552 30.703 39.1186 30.8401 38.982C30.9771 38.8453 31.1142 38.8453 31.2512 38.8453C31.3883 38.8453 31.5253 38.8453 31.7994 38.982C31.9365 39.1186 32.0735 39.2552 32.0735 39.5285L35.0887 47.4543C35.3628 47.4543 35.3628 47.5909 35.3628 47.5909ZM33.307 44.9951L31.5253 39.94L29.6066 44.9951H33.307Z" fill="white"/>
<path d="M118.974 11.3817C121.018 11.3817 122.674 9.73014 122.674 7.69285C122.674 5.65555 121.018 4.004 118.974 4.004C116.93 4.004 115.273 5.65555 115.273 7.69285C115.273 9.73014 116.93 11.3817 118.974 11.3817Z" fill="white"/>
<path d="M141.995 7.69269C141.995 9.74206 140.35 11.3815 138.294 11.3815C136.238 11.3815 134.594 9.74206 134.594 7.69269C134.594 5.64333 136.238 4.00385 138.294 4.00385C140.35 4.00385 141.995 5.64168 141.995 7.69269Z" fill="white"/>
<path d="M118.974 29.4179C121.018 29.4179 122.674 27.7664 122.674 25.7291C122.674 23.6918 121.018 22.0402 118.974 22.0402C116.93 22.0402 115.273 23.6918 115.273 25.7291C115.273 27.7664 116.93 29.4179 118.974 29.4179Z" fill="white"/>
<path d="M141.995 25.7291C141.995 27.7784 140.35 29.4179 138.294 29.4179C136.238 29.4179 134.594 27.7784 134.594 25.7291C134.594 23.6797 136.238 22.0402 138.294 22.0402C140.35 22.0402 141.995 23.6797 141.995 25.7291Z" fill="white"/>
<path d="M132.405 16.7109C132.405 18.7602 130.76 20.3997 128.704 20.3997C126.649 20.3997 125.004 18.7602 125.004 16.7109C125.004 14.6615 126.649 13.022 128.704 13.022C130.76 13.022 132.405 14.6615 132.405 16.7109Z" fill="white"/>
<path d="M109.11 28.599L98.8296 4.41325C98.6925 4.14 98.5554 4.00339 98.2813 4.00339H96.2255H95.9514H93.8956C93.6215 4.00339 93.4845 4.14 93.3474 4.41325L82.9297 28.599V28.7357C82.9297 29.0089 83.0668 29.1455 83.3409 29.1455H88.0007C88.2748 29.1455 88.4118 29.0089 88.5489 28.7357L90.7417 23.1341H101.708L103.9 28.7357C104.038 29.0089 104.175 29.1455 104.449 29.1455H109.109C109.383 29.1455 109.52 29.0089 109.52 28.7357C109.247 28.7357 109.247 28.599 109.11 28.599ZM92.251 18.7621L96.0885 9.06012L99.926 18.7621H92.251Z" fill="white"/>
<path d="M36.0483 11.7909C36.3224 10.8346 36.7336 10.4247 36.7336 10.4247C36.7336 10.4247 37.2817 9.46832 38.5152 8.92182C39.7487 8.37532 40.8451 8.37532 40.8451 8.37532H50.0294C50.3035 8.37532 50.5776 8.10207 50.5776 7.82882V4.54989C50.5776 4.27664 50.3035 4.00339 50.0294 4.00339H39.8858C34.2666 4.00339 29.7422 8.92184 29.7422 14.935V16.4378V16.5745V16.8477V16.9843V18.4872C29.7422 24.5003 34.265 29.4188 39.8858 29.4188H50.0294C50.3035 29.4188 50.5776 29.1455 50.5776 28.8723V25.4567C50.5776 25.1834 50.3035 24.9102 50.0294 24.9102H40.8451C40.8451 24.9102 39.6116 24.9102 38.5152 24.3637C37.2817 23.8172 36.7336 22.8608 36.7336 22.8608C36.7336 22.8608 36.3224 22.3143 36.0483 21.4945C35.7742 20.5382 35.7742 19.3085 35.7742 19.3085V18.7621H50.0294C50.3035 18.7621 50.5776 18.4889 50.5776 18.2156V14.8C50.5776 14.5267 50.3035 14.2535 50.0294 14.2535H35.7742V13.9802C35.7742 13.9769 35.9112 12.7473 36.0483 11.7909Z" fill="white"/>
<path d="M67.5754 29.1439H75.9374C76.2115 29.1439 76.3485 28.8706 76.3485 28.5974V25.1818C76.3485 24.9085 76.2115 24.6353 75.9374 24.6353H68.3978C68.3978 24.6353 67.4384 24.6353 66.479 24.0888C65.5196 23.5423 64.9714 22.5859 64.9714 22.5859C64.9714 22.5859 64.4232 22.0394 64.4232 21.083C64.4232 20.2633 64.4232 19.1703 64.4232 19.1703V16.7111V4.41325C64.4232 4.14 64.2862 4.00339 64.0121 4.00339H59.6263C59.3522 4.00339 59.0781 4.27664 59.0781 4.54989C59.0781 4.54989 59.0781 4.54985 59.0781 4.68647V16.8477V18.4872V21.083V21.2197C59.2135 25.5916 62.914 29.1439 67.5754 29.1439Z" fill="white"/>
<path d="M22.6171 28.5973L16.7238 18.7587C19.7389 18.0756 21.7948 16.0262 21.7948 11.516C21.9318 5.50288 17.8202 4.13662 12.7476 4H11.5141H0.548214C0.274108 4 0 4.27325 0 4.5465V28.7323C0 29.0055 0.274108 29.2788 0.548214 29.2788H4.93393C5.20803 29.2788 5.48214 29.0055 5.48214 28.7323V19.3036H11.6512L17.1333 28.8689C17.2704 29.1422 17.5444 29.2788 17.8185 29.2788H22.4784C22.7525 29.2788 22.8895 29.1422 22.8895 28.8689C22.6171 28.7339 22.6171 28.5973 22.6171 28.5973ZM12.8847 14.7966L11.5141 14.9332H5.34507V8.51023H11.6512H12.8847C15.7628 8.51023 16.5851 9.87652 16.5851 11.6526C16.448 13.4304 15.6257 14.7966 12.8847 14.7966Z" fill="white"/>
</svg>
