<?xml version="1.0" encoding="UTF-8"?>
<svg version="1.1" xmlns="http://www.w3.org/2000/svg" width="670" height="264">
<path d="M0 0 C1.28503047 0.63441086 2.57148354 1.26594869 3.859375 1.89453125 C7.19152287 3.53037401 10.50266978 5.20488125 13.81054688 6.88916016 C17.86388556 8.94566005 21.93320693 10.9702756 26 13 C30.74686105 15.37095092 35.49339657 17.74235073 40.23046875 20.1328125 C47.8733213 23.98358778 55.55645563 27.71987198 63.33081055 31.29931641 C70.71943248 34.72589785 70.71943248 34.72589785 74 37 C74 37.66 74 38.32 74 39 C74.58652344 39.2371875 75.17304688 39.474375 75.77734375 39.71875 C78.49348881 41.28447158 79.75523493 42.94476169 81.5625 45.5 C82.14128906 46.2940625 82.72007812 47.088125 83.31640625 47.90625 C87.75372592 56.06021097 88.44988919 64.10800615 88.3984375 73.25390625 C88.40274277 74.96525002 88.40274277 74.96525002 88.40713501 76.71116638 C88.40916516 79.10880025 88.40370929 81.50645109 88.39111328 83.90405273 C88.37503059 87.55555512 88.39100648 91.20595325 88.41015625 94.85742188 C88.40817392 97.19791909 88.40433047 99.53841562 88.3984375 101.87890625 C88.40451019 102.96039444 88.41058289 104.04188263 88.4168396 105.15614319 C88.35721085 111.63919817 87.49770774 117.0006947 85 123 C84.34 123 83.68 123 83 123 C82.814375 123.70125 82.62875 124.4025 82.4375 125.125 C78.95235337 132.09529325 72.28343089 135.00810891 65.515625 138.23046875 C60.63740812 140.68583791 55.98514146 143.48243333 51.31494141 146.30957031 C47.64970909 148.509937 43.96219241 150.55049801 40.125 152.4375 C34.82195381 155.04629761 29.73076172 157.9651228 24.625 160.9375 C18.0862447 164.71549842 11.54936289 168.29434179 4.75 171.578125 C1.55641718 173.22935248 -1.45473595 175.08952774 -4.5 177 C-25.00324339 189.74724321 -25.00324339 189.74724321 -38.265625 187.31640625 C-43.43166177 186.09172928 -47.57195042 183.70066162 -52.0625 180.9375 C-53.73246994 179.93909491 -55.40305304 178.94171478 -57.07421875 177.9453125 C-57.90099121 177.44805664 -58.72776367 176.95080078 -59.57958984 176.43847656 C-63.71253362 173.98222231 -67.92087323 171.66242308 -72.13305664 169.34545898 C-76.18717084 167.08993396 -80.14043016 164.69471009 -84.0859375 162.25390625 C-90.47089267 158.30561728 -96.92262215 154.48406903 -103.40652466 150.70101929 C-105.29746583 149.59729464 -107.18686805 148.49097462 -109.07592773 147.3840332 C-114.54792522 144.17878362 -120.02379804 140.98086657 -125.51953125 137.81640625 C-126.69563965 137.13553955 -126.69563965 137.13553955 -127.89550781 136.44091797 C-129.28632711 135.63644903 -130.67998367 134.83685428 -132.07714844 134.04345703 C-135.51915549 132.04738634 -138.4523957 130.08067966 -141 127 C-141.68935134 123.41537303 -141.63533376 121.12924771 -139.82421875 117.91015625 C-133.88073237 109.66299298 -126.73106461 105.70069194 -117 103 C-104.69916874 101.48345916 -95.79246207 105.0851249 -85.625 111.625 C-84.05632278 112.61977092 -82.48607578 113.61207191 -80.9140625 114.6015625 C-80.2329541 115.03807129 -79.5518457 115.47458008 -78.85009766 115.92431641 C-76.88274645 117.15212031 -76.88274645 117.15212031 -74 118 C-74 118.66 -74 119.32 -74 120 C-73.47792969 120.17015625 -72.95585938 120.3403125 -72.41796875 120.515625 C-68.13759315 121.92492555 -63.90312472 123.40688601 -59.6875 125 C-42.37102497 131.21004622 -23.94885642 133.14632821 -6.85546875 125.08984375 C-2.85844104 123.14247077 1.07233187 121.08325641 5 119 C5.7940625 118.65066406 6.588125 118.30132812 7.40625 117.94140625 C9.35623494 117.02462343 9.35623494 117.02462343 10 114 C10.66 114 11.32 114 12 114 C12.37125 113.01 12.37125 113.01 12.75 112 C14.01767293 108.95758497 15.46753174 106.07543767 17 103.16015625 C20.79194054 94.96897219 21.89008846 84.80304018 19.0546875 76.09765625 C16.73938695 71.72188383 14.05161412 68.89401008 10 66 C10 65.34 10 64.68 10 64 C8.78957031 63.62617188 7.57914063 63.25234375 6.33203125 62.8671875 C-0.07552388 60.73008309 -6.16561057 57.90940067 -12.3125 55.125 C-14.62046236 54.0845358 -16.92905233 53.04546262 -19.23828125 52.0078125 C-20.36186035 51.50185547 -21.48543945 50.99589844 -22.64306641 50.47460938 C-26.84479693 48.62890375 -31.09523334 46.91884556 -35.36791992 45.24462891 C-42.69214145 41.78123206 -47.47589638 36.48203031 -50.34375 28.98046875 C-50.5603125 28.32691406 -50.776875 27.67335937 -51 27 C-51.33 26.01 -51.66 25.02 -52 24 C-52.7518026 16.10607271 -50.81751832 9.94185568 -47 3 C-44.953125 0.64453125 -44.953125 0.64453125 -43 -1 C-42.34 -1 -41.68 -1 -41 -1 C-41 -1.66 -41 -2.32 -41 -3 C-27.88959857 -12.10444544 -12.69646459 -6.5452464 0 0 Z " fill="#E8E8EA" transform="translate(144,76)"/>
<path d="M0 0 C1.67772843 0.93443102 3.36577169 1.85052957 5.0625 2.75 C11.92446265 6.46174124 18.62152507 10.44063329 25.33105469 14.41894531 C28.31492982 16.18656106 31.30194879 17.94880047 34.2890625 19.7109375 C40.62666837 23.45247086 46.95459455 27.21003492 53.2779541 30.97558594 C54.98864827 31.99324706 56.70086268 33.00835121 58.41308594 34.0234375 C61.61387632 35.92381876 64.80781915 37.83520102 68 39.75 C68.96695801 40.32202148 69.93391602 40.89404297 70.93017578 41.48339844 C71.81946777 42.0199707 72.70875977 42.55654297 73.625 43.109375 C74.40101563 43.57311523 75.17703125 44.03685547 75.9765625 44.51464844 C78.17860288 46.13110762 79.53277198 47.70430773 81 50 C81.83201615 55.96088286 79.43808289 61.1226822 76.01171875 65.8515625 C70.35261262 71.89526807 63.64055988 75.55559225 55.421875 76.203125 C45.37954289 76.37930627 39.35795913 74.07904913 31.125 68.375 C11.11949482 54.52739151 -11.63450787 46.36942648 -36.13671875 50.2109375 C-41.85532438 51.37894391 -46.81977402 53.3472527 -52 56 C-52.89589844 56.4434375 -53.79179688 56.886875 -54.71484375 57.34375 C-63.99808568 62.36926443 -69.28279859 69.97972127 -73.05078125 79.71484375 C-75.110089 86.84191296 -75.51110455 95.86999402 -72.25 102.6875 C-70.52879746 105.52133703 -68.43123729 107.74242251 -66 110 C-66 110.66 -66 111.32 -66 112 C-65.18273437 112.2578125 -64.36546875 112.515625 -63.5234375 112.78125 C-59.47294781 114.1823063 -55.56426655 115.81608642 -51.625 117.5 C-45.95890308 119.90885474 -40.28703051 122.30049025 -34.59375 124.64453125 C-33.51915527 125.08796875 -32.44456055 125.53140625 -31.33740234 125.98828125 C-29.22958692 126.8571664 -27.12057317 127.72315138 -25.01025391 128.5859375 C-24.04007324 128.98683594 -23.06989258 129.38773438 -22.0703125 129.80078125 C-21.21195801 130.15309814 -20.35360352 130.50541504 -19.46923828 130.8684082 C-16.8294255 132.07817014 -14.40094504 133.36401721 -12 135 C-12 135.66 -12 136.32 -12 137 C-11.01 137.33 -10.02 137.66 -9 138 C-4.48224753 144.98198109 -1.90957358 151.59967797 -3 160 C-5.54070378 169.2289348 -10.10727841 174.05038906 -18.1328125 178.984375 C-24.68324114 182.54736966 -33.30690862 181.96889338 -40.3203125 180.12890625 C-47.04253547 177.6101372 -53.40453456 174.36659982 -59.78515625 171.09375 C-66.19245299 167.85893618 -72.7601844 164.9542918 -79.2980957 161.99560547 C-84.74478287 159.5229753 -90.1259809 156.96372982 -95.46337891 154.26367188 C-98.18781222 152.90643734 -100.93454319 151.60643812 -103.69140625 150.31640625 C-104.65626953 149.86330078 -105.62113281 149.41019531 -106.61523438 148.94335938 C-108.58178614 148.02198622 -110.5505512 147.10532251 -112.52148438 146.19335938 C-128.65185393 138.58673025 -128.65185393 138.58673025 -133.875 131.6875 C-134.40867188 131.01074219 -134.94234375 130.33398438 -135.4921875 129.63671875 C-139.87126498 121.97900555 -140.45717474 114.56613443 -140.43359375 105.87890625 C-140.4388356 104.73896713 -140.44407745 103.59902802 -140.44947815 102.42454529 C-140.45587245 100.02514456 -140.45459517 97.62571237 -140.44604492 95.22631836 C-140.43753321 91.57673784 -140.46633838 87.92872329 -140.49804688 84.27929688 C-140.49965921 81.93750046 -140.49908075 79.59570131 -140.49609375 77.25390625 C-140.50732773 76.17444229 -140.51856171 75.09497833 -140.53013611 73.98280334 C-140.45513661 65.73772972 -138.61347779 59.24839313 -134.2890625 52.21875 C-131.00040909 49.03111324 -127.30800206 46.81763313 -123.375 44.5 C-122.56321289 44.01297607 -121.75142578 43.52595215 -120.91503906 43.02416992 C-116.19540706 40.21781285 -111.44199038 37.59131127 -106.48046875 35.234375 C-103.26832355 33.63589015 -100.16870819 31.85510243 -97.0625 30.0625 C-89.80881506 25.87966146 -82.4852032 21.8484884 -75.08984375 17.921875 C-74.41300537 17.56222656 -73.73616699 17.20257812 -73.03881836 16.83203125 C-71.7058859 16.12462415 -70.3720978 15.41882631 -69.03735352 14.71484375 C-66.26287553 13.24430085 -63.61568518 11.74379012 -61 10 C-60.01 10 -59.02 10 -58 10 C-58 9.34 -58 8.68 -58 8 C-56.97261719 7.49210937 -55.94523437 6.98421875 -54.88671875 6.4609375 C-53.48680389 5.76597795 -52.08707749 5.07063872 -50.6875 4.375 C-49.95781006 4.01325684 -49.22812012 3.65151367 -48.47631836 3.27880859 C-44.26315022 1.17662918 -40.14488196 -1.025595 -36.0625 -3.375 C-22.98251193 -10.49892207 -12.0802311 -7.95154452 0 0 Z " fill="#E8E8EB" transform="translate(140,9)"/>
<path d="M0 0 C6.38433645 -0.41966365 6.38433645 -0.41966365 9.1081543 1.43701172 C9.67445557 2.09459473 10.24075684 2.75217773 10.82421875 3.4296875 C11.46037109 4.14253906 12.09652344 4.85539062 12.75195312 5.58984375 C13.39068359 6.34394531 14.02941406 7.09804687 14.6875 7.875 C15.97796476 9.35602893 17.27336591 10.8327745 18.57421875 12.3046875 C19.13713623 12.96452637 19.70005371 13.62436523 20.2800293 14.30419922 C22.07411777 16.07307623 23.6986045 17.00896845 26 18 C31.2530789 12.99839828 35.68610967 7.92951602 39.75 1.90625 C43.09865408 -0.93080415 45.68157969 -0.13331156 50 0 C50.02526838 6.96003447 50.04283222 13.9200572 50.05493164 20.88012695 C50.05997341 23.24992312 50.06680665 25.61971615 50.07543945 27.98950195 C50.0875119 31.38754039 50.09322971 34.78553785 50.09765625 38.18359375 C50.10281754 39.25024765 50.10797882 40.31690155 50.11329651 41.4158783 C50.11337204 42.39681961 50.11344757 43.37776093 50.11352539 44.38842773 C50.115746 45.25668686 50.11796661 46.12494598 50.12025452 47.01951599 C50 49 50 49 49 50 C44.33154772 50.14426614 39.67134047 50.04208415 35 50 C34.67 43.4 34.34 36.8 34 30 C32.9275 31.32 31.855 32.64 30.75 34 C28.921875 36.25 28.921875 36.25 27 38 C25.68 38 24.36 38 23 38 C23 37.34 23 36.68 23 36 C22.4225 35.7525 21.845 35.505 21.25 35.25 C19 34 19 34 15 30 C14.67 36.6 14.34 43.2 14 50 C3.94140625 50.09765625 3.94140625 50.09765625 1 50 C0 49 0 49 -0.12025452 47.01951599 C-0.11803391 46.15125687 -0.11581329 45.28299774 -0.11352539 44.38842773 C-0.11344986 43.40748642 -0.11337433 42.4265451 -0.11329651 41.4158783 C-0.10813522 40.3492244 -0.10297394 39.2825705 -0.09765625 38.18359375 C-0.0962413 37.0974025 -0.09482635 36.01121124 -0.09336853 34.8921051 C-0.08775048 31.40720925 -0.07519492 27.92237658 -0.0625 24.4375 C-0.05748733 22.08138113 -0.05292402 19.72526126 -0.04882812 17.36914062 C-0.03777519 11.57940536 -0.02101951 5.78970719 0 0 Z " fill="#E8E8EB" transform="translate(307,70)"/>
<path d="M0 0 C0.52980469 0.37125 1.05960938 0.7425 1.60546875 1.125 C2.96671875 1.99125 2.96671875 1.99125 4.35546875 2.875 C9.65991141 8.17944266 11.72790633 14.94577007 11.85546875 22.3125 C11.75397677 30.77016475 9.61689195 37.1135768 3.60546875 43.125 C2.94546875 43.125 2.28546875 43.125 1.60546875 43.125 C1.60546875 43.785 1.60546875 44.445 1.60546875 45.125 C-7.29575346 49.48091725 -14.85528726 49.73416604 -24.39453125 47.125 C-27.51953125 46 -27.51953125 46 -29.39453125 45.125 C-29.39453125 44.465 -29.39453125 43.805 -29.39453125 43.125 C-29.97203125 42.898125 -30.54953125 42.67125 -31.14453125 42.4375 C-35.07241089 40.14623688 -36.94465776 37.22719004 -38.64453125 33.0625 C-40.62203823 24.99356528 -40.45944565 15.28541498 -36.171875 8.06640625 C-28.38485789 -3.25072529 -12.13997015 -7.45482176 0 0 Z M-21.39453125 13.125 C-24.50586608 15.92520135 -25.03407686 18.97718559 -25.38671875 23.1015625 C-25.39886021 26.24620127 -24.85240162 28.33603059 -23.39453125 31.125 C-20.19663799 33.95104521 -18.12566723 35.020552 -13.89453125 35.625 C-9.66339527 35.020552 -7.59242451 33.95104521 -4.39453125 31.125 C-1.9569938 26.46188487 -1.99908335 22.10141347 -3.39453125 17.125 C-5.44968469 13.4889593 -6.89446899 12.35144329 -10.70703125 10.625 C-15.28421912 10.00436436 -17.42405488 10.83434056 -21.39453125 13.125 Z " fill="#E8E8EB" transform="translate(581.39453125,71.875)"/>
<path d="M0 0 C4.16253275 -0.09938095 8.32442479 -0.17170617 12.48779297 -0.21972656 C13.90197795 -0.23975843 15.31608097 -0.26699248 16.72998047 -0.30175781 C18.77071419 -0.35065489 20.8103469 -0.37305123 22.8515625 -0.390625 C24.68968506 -0.4220459 24.68968506 -0.4220459 26.56494141 -0.45410156 C31.23997585 0.16392005 34.53567206 2.0983796 37.42578125 5.8515625 C40.5810117 12.1620234 42.53942462 17.07742126 40.328125 24.1484375 C39.61585997 25.79471044 38.81575615 27.40247755 38 29 C37.34 29 36.68 29 36 29 C36.26167277 35.01847375 38.39200628 38.69158585 41.72265625 43.66796875 C43 46 43 46 43 50 C38.22668135 50.52964221 33.75403123 50.77822115 29 50 C24.47480648 46.30415689 22.42407908 40.55390843 21 35 C19.02 35 17.04 35 15 35 C15 39.95 15 44.9 15 50 C4.16015625 50.09765625 4.16015625 50.09765625 1 50 C0 49 0 49 -0.12025452 47.01951599 C-0.11803391 46.15125687 -0.11581329 45.28299774 -0.11352539 44.38842773 C-0.11344986 43.40748642 -0.11337433 42.4265451 -0.11329651 41.4158783 C-0.10813522 40.3492244 -0.10297394 39.2825705 -0.09765625 38.18359375 C-0.0962413 37.0974025 -0.09482635 36.01121124 -0.09336853 34.8921051 C-0.08775048 31.40720925 -0.07519492 27.92237658 -0.0625 24.4375 C-0.05748733 22.08138113 -0.05292402 19.72526126 -0.04882812 17.36914062 C-0.03777519 11.57940536 -0.02101951 5.78970719 0 0 Z M14 12 C14 15.63 14 19.26 14 23 C15.588125 23.061875 17.17625 23.12375 18.8125 23.1875 C19.70582031 23.22230469 20.59914063 23.25710937 21.51953125 23.29296875 C24.03387088 23.2024921 24.03387088 23.2024921 25.80078125 21.6796875 C27.64840923 19.09180467 27.39299693 17.07847595 27 14 C23.68629 11.79086 22.6553979 11.77518447 18.8125 11.875 C17.224375 11.91625 15.63625 11.9575 14 12 Z " fill="#E8E8EB" transform="translate(413,70)"/>
<path d="M0 0 C3.54399697 2.16746596 5.58923737 4.58025442 7.375 8.375 C7.625 12.25 7.625 12.25 7.375 15.375 C5.27195523 15.4830023 3.16733091 15.56058987 1.0625 15.625 C-0.69513672 15.69460937 -0.69513672 15.69460937 -2.48828125 15.765625 C-5.625 15.375 -5.625 15.375 -7.3515625 13.38671875 C-7.77179688 12.72285156 -8.19203125 12.05898437 -8.625 11.375 C-11.66753508 10.79154524 -11.66753508 10.79154524 -14.625 11.375 C-15.615 12.86 -15.615 12.86 -16.625 14.375 C-16.295 15.035 -15.965 15.695 -15.625 16.375 C-13.69834804 17.02995134 -13.69834804 17.02995134 -11.37109375 17.4453125 C-10.09008789 17.70634766 -10.09008789 17.70634766 -8.78320312 17.97265625 C-7.43645508 18.23369141 -7.43645508 18.23369141 -6.0625 18.5 C-5.16080078 18.68175781 -4.25910156 18.86351563 -3.33007812 19.05078125 C-1.09646748 19.49986699 1.13843808 19.94089404 3.375 20.375 C3.375 21.035 3.375 21.695 3.375 22.375 C3.99375 22.643125 4.6125 22.91125 5.25 23.1875 C7.375 24.375 7.375 24.375 9.375 27.375 C9.67578125 30.1171875 9.67578125 30.1171875 9.6875 33.25 C9.70425781 34.27867188 9.72101563 35.30734375 9.73828125 36.3671875 C9.32835139 39.76123043 8.43085602 41.66387114 6.375 44.375 C5.715 44.375 5.055 44.375 4.375 44.375 C4.375 45.035 4.375 45.695 4.375 46.375 C-3.16284959 50.40687303 -10.42948536 51.59747403 -18.8125 49.625 C-24.70084693 47.00795692 -28.61088728 44.17137062 -31.625 38.375 C-31.625 36.395 -31.625 34.415 -31.625 32.375 C-27.005 32.375 -22.385 32.375 -17.625 32.375 C-17.295 33.365 -16.965 34.355 -16.625 35.375 C-13.63905576 36.86797212 -10.91646376 36.49255228 -7.625 36.375 C-6.635 35.88 -6.635 35.88 -5.625 35.375 C-4.97286708 33.35036745 -4.97286708 33.35036745 -4.625 31.375 C-5.78257812 31.20484375 -6.94015625 31.0346875 -8.1328125 30.859375 C-9.67199798 30.61535779 -11.21105394 30.37052264 -12.75 30.125 C-13.89082031 29.96064453 -13.89082031 29.96064453 -15.0546875 29.79296875 C-21.06697552 28.80819744 -25.6098911 27.01548753 -29.4375 22 C-31.50432815 17.43122198 -32.08098177 14.09137673 -30.5 9.3125 C-28.57241705 4.73010962 -25.90568241 1.50539059 -21.38671875 -0.734375 C-14.79261761 -2.86090267 -6.37066936 -2.87939858 0 0 Z " fill="#E7E7EA" transform="translate(291.625,70.625)"/>
<path d="M0 0 C3.85142814 2.28073398 6.72425848 4.79326836 8.34765625 9.0546875 C8.53515625 12.8671875 8.53515625 12.8671875 8.34765625 16.0546875 C6.24461148 16.1626898 4.13998716 16.24027737 2.03515625 16.3046875 C0.27751953 16.37429687 0.27751953 16.37429687 -1.515625 16.4453125 C-4.65234375 16.0546875 -4.65234375 16.0546875 -6.37890625 14.06640625 C-6.79914062 13.40253906 -7.219375 12.73867187 -7.65234375 12.0546875 C-10.69487883 11.47123274 -10.69487883 11.47123274 -13.65234375 12.0546875 C-14.64234375 13.5396875 -14.64234375 13.5396875 -15.65234375 15.0546875 C-15.32234375 15.7146875 -14.99234375 16.3746875 -14.65234375 17.0546875 C-12.72569179 17.70963884 -12.72569179 17.70963884 -10.3984375 18.125 C-9.11743164 18.38603516 -9.11743164 18.38603516 -7.81054688 18.65234375 C-6.46379883 18.91337891 -6.46379883 18.91337891 -5.08984375 19.1796875 C-4.18814453 19.36144531 -3.28644531 19.54320313 -2.35742188 19.73046875 C-0.12381123 20.17955449 2.11109433 20.62058154 4.34765625 21.0546875 C4.34765625 21.7146875 4.34765625 22.3746875 4.34765625 23.0546875 C4.96640625 23.3228125 5.58515625 23.5909375 6.22265625 23.8671875 C8.34765625 25.0546875 8.34765625 25.0546875 10.34765625 28.0546875 C10.6484375 30.796875 10.6484375 30.796875 10.66015625 33.9296875 C10.67691406 34.95835938 10.69367187 35.98703125 10.7109375 37.046875 C10.30100764 40.44091793 9.40351227 42.34355864 7.34765625 45.0546875 C6.68765625 45.0546875 6.02765625 45.0546875 5.34765625 45.0546875 C5.34765625 45.7146875 5.34765625 46.3746875 5.34765625 47.0546875 C-2.16721269 51.07426856 -8.92431196 52.03290097 -17.27734375 50.3046875 C-23.54737621 47.98245325 -27.53567028 45.04829032 -30.65234375 39.0546875 C-30.65234375 37.0746875 -30.65234375 35.0946875 -30.65234375 33.0546875 C-26.03234375 33.0546875 -21.41234375 33.0546875 -16.65234375 33.0546875 C-16.32234375 34.0446875 -15.99234375 35.0346875 -15.65234375 36.0546875 C-12.66639951 37.54765962 -9.94380751 37.17223978 -6.65234375 37.0546875 C-5.66234375 36.5596875 -5.66234375 36.5596875 -4.65234375 36.0546875 C-4.00021083 34.03005495 -4.00021083 34.03005495 -3.65234375 32.0546875 C-4.80992187 31.88453125 -5.9675 31.714375 -7.16015625 31.5390625 C-8.69934173 31.29504529 -10.23839769 31.05021014 -11.77734375 30.8046875 C-12.91816406 30.64033203 -12.91816406 30.64033203 -14.08203125 30.47265625 C-20.09431927 29.48788494 -24.63723485 27.69517503 -28.46484375 22.6796875 C-30.5316719 18.11090948 -31.10832552 14.77106423 -29.52734375 9.9921875 C-27.60461845 5.42134509 -24.94285006 2.20196765 -20.4453125 -0.05078125 C-14.24125899 -2.03781377 -6.1838685 -2.20397081 0 0 Z " fill="#E8E8EB" transform="translate(527.65234375,69.9453125)"/>
<path d="M0 0 C2.64 0 5.28 0 8 0 C11.79510463 8.11793091 15.5790858 16.24016548 19.3125 24.38671875 C20.64311418 27.23583477 21.9990918 30.06730031 23.375 32.89453125 C23.78766113 33.74821289 24.20032227 34.60189453 24.62548828 35.48144531 C25.44552059 37.17534558 26.27182285 38.86622775 27.10498047 40.55371094 C27.48025879 41.33133789 27.85553711 42.10896484 28.2421875 42.91015625 C28.5810498 43.60246338 28.91991211 44.29477051 29.26904297 45.00805664 C30 47 30 47 30 51 C25.05 51 20.1 51 15 51 C14.34 49.02 13.68 47.04 13 45 C7.06 45 1.12 45 -5 45 C-5.66 46.98 -6.32 48.96 -7 51 C-11.62 51 -16.24 51 -21 51 C-22.19644512 46.21421953 -21.49886027 45.18345291 -19.4296875 40.8359375 C-19.15158234 40.24382477 -18.87347717 39.65171204 -18.58694458 39.04165649 C-17.69386437 37.14738062 -16.7846592 35.26136116 -15.875 33.375 C-15.28540683 32.12940343 -14.6968545 30.88331362 -14.109375 29.63671875 C-11.15959801 23.3993053 -8.12187258 17.2086894 -5.01855469 11.04638672 C-3.84233747 8.6832389 -2.74140628 6.29508109 -1.6875 3.875 C-1.36136719 3.12992187 -1.03523438 2.38484375 -0.69921875 1.6171875 C-0.46847656 1.08351563 -0.23773438 0.54984375 0 0 Z M3 25 C2.34 27.31 1.68 29.62 1 32 C2.98 32 4.96 32 7 32 C6.34 29.69 5.68 27.38 5 25 C4.34 25 3.68 25 3 25 Z " fill="#E8E8EB" transform="translate(381,69)"/>
<path d="M0 0 C10.56 0 21.12 0 32 0 C32 3.96 32 7.92 32 12 C26.06 12 20.12 12 14 12 C14 14.97 14 17.94 14 21 C19.28 21 24.56 21 30 21 C30 25.29 30 29.58 30 34 C24.72 34 19.44 34 14 34 C14 39.28 14 44.56 14 50 C3.94140625 50.09765625 3.94140625 50.09765625 1 50 C0 49 0 49 -0.12025452 47.01951599 C-0.11803391 46.15125687 -0.11581329 45.28299774 -0.11352539 44.38842773 C-0.11344986 43.40748642 -0.11337433 42.4265451 -0.11329651 41.4158783 C-0.10813522 40.3492244 -0.10297394 39.2825705 -0.09765625 38.18359375 C-0.0962413 37.0974025 -0.09482635 36.01121124 -0.09336853 34.8921051 C-0.08775048 31.40720925 -0.07519492 27.92237658 -0.0625 24.4375 C-0.05748733 22.08138113 -0.05292402 19.72526126 -0.04882812 17.36914062 C-0.03862411 11.57938289 -0.01905224 5.78976255 0 0 Z " fill="#E7E7EB" transform="translate(599,70)"/>
<path d="M0 0 C5.62503789 1.12500758 5.62503789 1.12500758 7.9375 4.3515625 C8.44023437 5.03863281 8.94296875 5.72570312 9.4609375 6.43359375 C10.22277344 7.51833984 10.22277344 7.51833984 11 8.625 C11.50789063 9.32496094 12.01578125 10.02492187 12.5390625 10.74609375 C14.04033264 12.82092607 15.52187707 14.90863438 17 17 C17.95767087 18.34161896 18.91595492 19.68280054 19.875 21.0234375 C20.57625 22.00570312 21.2775 22.98796875 22 24 C26.0645629 22.6451457 27.43751926 19.89802051 29.75 16.5 C30.64215927 15.22581271 31.53539196 13.95237635 32.4296875 12.6796875 C33.08469238 11.74141113 33.08469238 11.74141113 33.75292969 10.78417969 C35.43480915 8.37791988 37.13164315 5.9872108 38.875 3.625 C39.64457031 2.56152344 39.64457031 2.56152344 40.4296875 1.4765625 C42 0 42 0 46 0 C46 16.5 46 33 46 50 C43.69 50 41.38 50 39 50 C38.67 39.44 38.34 28.88 38 18 C35.69 21.3 33.38 24.6 31 28 C29.70522179 29.72180383 28.39829067 31.43481589 27.0625 33.125 C26.47597656 33.87007812 25.88945312 34.61515625 25.28515625 35.3828125 C24.86105469 35.91648438 24.43695313 36.45015625 24 37 C20.73556237 35.62453471 19.16014942 34.24022413 17.203125 31.3046875 C16.76645508 30.65999512 16.32978516 30.01530273 15.87988281 29.35107422 C15.34202148 28.53396973 14.80416016 27.71686523 14.25 26.875 C12.5175 24.27625 10.785 21.6775 9 19 C8.67 29.23 8.34 39.46 8 50 C5.36 50 2.72 50 0 50 C0 33.5 0 17 0 0 Z " fill="#E7E7EA" transform="translate(365,146)"/>
<path d="M0 0 C0.68642578 -0.020625 1.37285156 -0.04125 2.08007812 -0.0625 C7.92913933 -0.10676915 12.54863438 1.03167073 17.1484375 4.8984375 C19.89728316 8.25476287 21.9142817 10.74189806 22.1875 15.25 C16.85700846 15.68692554 16.85700846 15.68692554 14.1875 15.25 C12.5625 12.9375 12.5625 12.9375 11.1875 10.25 C6.20900183 6.72862324 1.08281958 6.3038376 -4.8125 7.25 C-9.55549303 9.00425769 -12.79759479 11.60331257 -15.3125 16 C-17.79298455 21.85394355 -17.5188112 27.01954359 -15.625 33 C-13.12796593 37.4774404 -10.67648319 40.3180084 -6.0625 42.625 C-0.25294788 43.74222156 5.46571513 42.54201594 11.1875 41.25 C11.1875 40.59 11.1875 39.93 11.1875 39.25 C11.80625 38.6725 12.425 38.095 13.0625 37.5 C15.74815159 34.97300033 15.74815159 34.97300033 17.1875 29.25 C11.5775 29.25 5.9675 29.25 0.1875 29.25 C0.1875 27.27 0.1875 25.29 0.1875 23.25 C8.1075 23.25 16.0275 23.25 24.1875 23.25 C24.1875 33.38868613 24.1875 33.38868613 22.3125 37.125 C21.96445312 37.84429687 21.61640625 38.56359375 21.2578125 39.3046875 C20.1875 41.25 20.1875 41.25 18.1875 44.25 C17.5275 44.25 16.8675 44.25 16.1875 44.25 C16.1875 44.91 16.1875 45.57 16.1875 46.25 C8.9137124 51.30124139 0.73409915 51.01972477 -7.8125 50.25 C-14.20394161 48.24254721 -19.30970902 43.93758265 -22.8125 38.25 C-25.86574794 29.92296016 -25.97484814 20.5719688 -22.8125 12.25 C-21.3125 9.3125 -21.3125 9.3125 -19.8125 7.25 C-19.1525 7.25 -18.4925 7.25 -17.8125 7.25 C-17.4825 6.26 -17.1525 5.27 -16.8125 4.25 C-11.33604929 0.40168328 -6.56114718 0.04846646 0 0 Z " fill="#E8E8EB" transform="translate(285.8125,145.75)"/>
<path d="M0 0 C4.24854525 2.21938931 7.54906058 4.88645514 10.04296875 9.04296875 C10.79296875 11.85546875 10.79296875 11.85546875 11.04296875 14.04296875 C7.79296875 14.35546875 7.79296875 14.35546875 4.04296875 14.04296875 C1.98046875 11.73046875 1.98046875 11.73046875 0.04296875 9.04296875 C-5.0333193 5.53791272 -9.98800489 5.32474444 -15.95703125 6.04296875 C-20.31834397 7.62890065 -22.35869509 9.27538132 -24.95703125 13.04296875 C-25.61703125 13.04296875 -26.27703125 13.04296875 -26.95703125 13.04296875 C-28.30993296 21.16037904 -29.10061696 28.61422944 -24.95703125 36.04296875 C-20.97014186 40.02985814 -17.17304187 41.83778258 -11.58203125 42.35546875 C-6.48211155 41.9158205 -2.72205812 40.37866476 1.35546875 37.29296875 C3.64220421 34.52300178 3.64220421 34.52300178 5.04296875 28.04296875 C-0.23703125 28.04296875 -5.51703125 28.04296875 -10.95703125 28.04296875 C-10.95703125 26.06296875 -10.95703125 24.08296875 -10.95703125 22.04296875 C-3.03703125 22.04296875 4.88296875 22.04296875 13.04296875 22.04296875 C12.72644064 31.32779328 11.85567303 37.1225977 5.296875 43.828125 C-1.07469165 49.62419531 -6.87295518 49.40700263 -15.3203125 49.25 C-22.46851239 48.84306703 -26.3404549 46.09661844 -31.37890625 41.15234375 C-35.3621893 35.82815353 -36.44438449 30.55945684 -36.33203125 24.04296875 C-36.34943359 23.03363281 -36.34943359 23.03363281 -36.3671875 22.00390625 C-36.32640489 14.96210851 -33.96880878 9.05474628 -28.95703125 4.04296875 C-21.17118726 -2.607058 -9.50109738 -3.07499189 0 0 Z " fill="#E8E8EB" transform="translate(534.95703125,146.95703125)"/>
<path d="M0 0 C12.54 0 25.08 0 38 0 C38 3.96 38 7.92 38 12 C34.04 12 30.08 12 26 12 C26 24.54 26 37.08 26 50 C21.38 50 16.76 50 12 50 C12 37.46 12 24.92 12 12 C8.04 12 4.08 12 0 12 C0 8.04 0 4.08 0 0 Z " fill="#E7E7EA" transform="translate(457,70)"/>
<path d="M0 0 C12.21 0 24.42 0 37 0 C37 3.96 37 7.92 37 12 C33.37 12 29.74 12 26 12 C26 24.54 26 37.08 26 50 C21.38 50 16.76 50 12 50 C12 37.46 12 24.92 12 12 C8.04 12 4.08 12 0 12 C0 8.04 0 4.08 0 0 Z " fill="#E8E8EA" transform="translate(633,70)"/>
<path d="M0 0 C2.475 0.495 2.475 0.495 5 1 C5 1.66 5 2.32 5 3 C5.99 3.33 6.98 3.66 8 4 C11 7.44444444 11 7.44444444 11 10 C11.99 10.33 12.98 10.66 14 11 C15.46484375 12.70703125 15.46484375 12.70703125 16.9375 14.8125 C18.66549233 17.22134717 20.26934665 19.26934665 22.375 21.375 C22.91125 21.91125 23.4475 22.4475 24 23 C24 23.66 24 24.32 24 25 C24.66 25 25.32 25 26 25 C30 29.47058824 30 29.47058824 30 32 C30.66 32 31.32 32 32 32 C32.33 21.44 32.66 10.88 33 0 C35.31 0 37.62 0 40 0 C40 16.5 40 33 40 50 C35.25 48.8125 35.25 48.8125 33 46 C33 45.34 33 44.68 33 44 C32.34 44 31.68 44 31 44 C27 39.52941176 27 39.52941176 27 37 C25.515 36.505 25.515 36.505 24 36 C22.39187335 34.26773725 20.85802684 32.4654991 19.375 30.625 C18.57835937 29.64789063 17.78171875 28.67078125 16.9609375 27.6640625 C15 25 15 25 14 22 C13.34 22 12.68 22 12 22 C10.68 20.35 9.36 18.7 8 17 C7.67 27.89 7.34 38.78 7 50 C4.69 50 2.38 50 0 50 C0 33.5 0 17 0 0 Z " fill="#E8E8EB" transform="translate(450,146)"/>
<path d="M0 0 C1.65 0 3.3 0 5 0 C5.32162109 0.73412109 5.64324219 1.46824219 5.97460938 2.22460938 C15.48329027 24.01475139 15.48329027 24.01475139 26.2109375 45.22265625 C27 47 27 47 27 50 C24.36 50 21.72 50 19 50 C18.16180842 48.37750059 17.3295884 46.75191503 16.5 45.125 C16.0359375 44.22007812 15.571875 43.31515625 15.09375 42.3828125 C14 40 14 40 14 38 C6.08 38 -1.84 38 -10 38 C-10.99 40.97 -11.98 43.94 -13 47 C-13.66 47.99 -14.32 48.98 -15 50 C-16.9453125 50.29296875 -16.9453125 50.29296875 -19.125 50.1875 C-20.40375 50.125625 -21.6825 50.06375 -23 50 C-22.37733091 47.26736358 -21.56588121 44.79649008 -20.43359375 42.234375 C-20.11696777 41.51717285 -19.8003418 40.7999707 -19.47412109 40.06103516 C-19.13203613 39.29839355 -18.78995117 38.53575195 -18.4375 37.75 C-18.08252441 36.95513184 -17.72754883 36.16026367 -17.36181641 35.34130859 C-14.08700984 28.07438436 -10.5619566 20.94771157 -6.94042969 13.84863281 C-5.44405055 10.90715233 -3.97313546 7.95318706 -2.5 5 C-1.66666667 3.33333333 -0.83333333 1.66666667 0 0 Z M1 13 C-0.33631721 15.97783718 -1.66855104 18.95748332 -3 21.9375 C-3.3815625 22.78763672 -3.763125 23.63777344 -4.15625 24.51367188 C-4.5171875 25.32255859 -4.878125 26.13144531 -5.25 26.96484375 C-5.75273437 28.08814087 -5.75273437 28.08814087 -6.265625 29.23413086 C-7.06399831 30.83514198 -7.06399831 30.83514198 -7 32 C-1.06 32 4.88 32 11 32 C8.68987729 25.39964941 6.26549728 19.18111986 3 13 C2.34 13 1.68 13 1 13 Z " fill="#E7E7EB" transform="translate(333,146)"/>
<path d="M0 0 C7.59 0 15.18 0 23 0 C23 1.98 23 3.96 23 6 C20.36 6 17.72 6 15 6 C15 18.54 15 31.08 15 44 C17.64 44 20.28 44 23 44 C23 45.98 23 47.96 23 50 C15.08 50 7.16 50 -1 50 C-1 48.02 -1 46.04 -1 44 C1.97 44 4.94 44 8 44 C8 31.46 8 18.92 8 6 C5.36 6 2.72 6 0 6 C0 4.02 0 2.04 0 0 Z " fill="#E7E7EA" transform="translate(419,146)"/>
</svg>
