<svg width="142" height="52" viewBox="0 0 142 52" fill="none" xmlns="http://www.w3.org/2000/svg">
<g clip-path="url(#clip0_4253_817)">
<path d="M30.9159 19.0958C30.9638 14.9559 27.6514 11.6046 23.449 11.5552H9.17071C8.60434 11.5552 8.16016 11.998 8.16016 12.5626C8.16016 12.5626 8.16016 17.7592 8.16016 17.8876C8.16016 18.895 8.16015 20.0785 8.57957 20.6744C8.79753 20.9971 9.67108 21.9551 10.0657 22.3979C10.1136 22.4456 10.1862 22.495 10.2837 22.495C10.4042 22.495 10.5347 22.4226 10.5825 22.3024C10.6304 22.1576 10.5347 22.0291 10.4851 21.9073C10.3398 21.6341 10.1863 21.3428 10.1863 20.9971C10.1863 19.886 11.1241 19.0481 12.1908 19.0481H21.7829C22.2766 19.0481 22.6713 19.4431 22.6713 19.9337V22.4472C22.6713 22.8423 22.3476 23.0596 22.057 23.0596H17.2404C17.0472 23.0596 16.8688 23.2291 16.8688 23.43C16.8688 23.5024 16.8936 23.5748 16.9415 23.6225L29.3208 37.7689C29.8624 38.4142 30.9539 38.2117 30.9539 37.3261L30.9159 19.0958Z" fill="white"/>
<path d="M0.0214669 33.8289C-0.026419 37.9688 3.28597 41.3449 7.48838 41.3926H21.7749C22.3412 41.3926 22.7854 40.9498 22.7854 40.3852C22.7854 40.3852 22.7854 35.1885 22.7854 35.0601C22.7854 34.0527 22.7854 32.8692 22.366 32.2733C22.1481 31.9507 21.2746 30.9927 20.8799 30.5499C20.832 30.5022 20.7594 30.4528 20.662 30.4528C20.5414 30.4528 20.411 30.5252 20.3631 30.6454C20.3152 30.7903 20.411 30.9186 20.4605 31.0404C20.6058 31.3137 20.7594 31.6051 20.7594 31.9507C20.7594 33.0618 19.8215 33.9491 18.7548 33.9491H9.17096C8.67724 33.9491 8.2826 33.5063 8.2826 33.0141V30.4758C8.2826 30.0808 8.60626 29.8635 8.89688 29.8635H13.7135C13.9067 29.8635 14.0851 29.694 14.0851 29.4931C14.0851 29.4207 14.0603 29.3483 14.0124 29.3005L1.63305 15.1542C1.09144 14.5172 0 14.7114 0 15.597L0.0214669 33.8289Z" fill="white"/>
<path d="M56.1874 28.6429C55.1207 27.7079 53.9401 27.1614 52.2112 26.4026C50.7251 25.7096 49.343 25.1219 48.5752 24.5573C47.9279 23.9927 47.4358 23.1549 47.4358 21.1813C47.4358 18.8126 48.6479 17.5566 50.5468 17.5566C52.5993 17.5566 53.5372 18.6924 53.6099 23.3491H57.6669C57.5464 16.5739 55.735 13.6669 50.3784 13.6669C45.707 13.6669 42.8867 16.7928 42.8867 21.578C42.8867 24.559 43.8973 26.3549 45.0118 27.2981C45.9497 28.1112 47.307 28.9013 48.988 29.5384C50.5963 30.2313 51.8562 30.7713 52.4952 31.2618C53.1904 31.8264 53.7321 32.6149 53.7321 34.2428C53.7321 36.5309 52.6653 37.8675 50.4675 37.8675C48.0914 37.8675 47.0808 36.5144 47.033 32.3251H42.9759C43.0485 38.1177 44.7047 41.5892 50.4675 41.5892C55.5831 41.5892 58.3308 38.6082 58.3308 33.9531C58.2878 31.5186 57.3747 29.7227 56.1874 28.6429Z" fill="white"/>
<path d="M78.9805 14.2243H83.5296V41.2512H78.9805V14.2243Z" fill="white"/>
<path d="M99.2511 13.0471V31.325L93.1184 13.0471H86.5977V14.8676V40.0739H90.8232V18.7589L98.2422 40.0739H99.2528H103.48V13.0471H99.2511Z" fill="white"/>
<path d="M135.718 13.0471H132.777H132.526H129.586L123.355 40.0739H128.147L129.359 34.1612H132.551H132.802H135.994L137.206 40.0739H141.998L135.718 13.0471ZM132.657 17.7269L135.203 30.3423H130.088L132.657 17.7269Z" fill="white"/>
<path d="M61.3894 13.0963H68.0637C73.5029 13.0963 75.9269 15.8354 75.9269 22.6584C75.9269 29.3118 73.5029 32.092 68.4353 32.092H65.9386V40.1726H61.3398V13.0733H61.3878L61.3894 13.0963ZM68.1843 27.9505C70.4795 27.9505 71.6915 27.185 71.6915 22.9727C71.6915 18.6386 70.6248 17.0601 68.1843 17.0601H66.0591V27.9505H68.1843Z" fill="white"/>
<path d="M111.828 37.3121V37.2397L120.33 17.6004V14.2243H106.762V18.2687H115.109V18.3411L106.536 38.2224L106.527 38.5928V41.3565H119.982L120.797 37.3121H111.828Z" fill="white"/>
</g>
<defs>
<clipPath id="clip0_4253_817">
<rect width="142" height="52" fill="white"/>
</clipPath>
</defs>
</svg>
