<svg width="636" height="265" viewBox="0 0 636 265" fill="none" xmlns="http://www.w3.org/2000/svg">
<path fill-rule="evenodd" clip-rule="evenodd" d="M0.903564 165.844V152.819H35.2413V167.977C35.2413 181.85 40.596 188.791 51.2978 188.791H51.4336C62.0373 188.791 67.3467 181.873 67.3467 168.044C67.3467 160.143 65.0616 152.736 60.4762 145.818C55.8983 138.9 50.423 132.576 44.0502 126.845L26.8398 109.065C19.7279 102.846 13.7774 95.1394 8.98836 85.9531C4.19179 76.7592 1.7935 66.5813 1.7935 55.4195C1.7935 38.2411 6.31857 25.0662 15.3687 15.8798C24.4113 6.69343 36.7044 2.104 52.233 2.104C67.7615 2.104 79.6851 6.69343 88.0112 15.8723C96.3374 25.0511 100.5 38.226 100.5 55.397V62.2097H68.8325V53.3313C68.8325 39.4128 63.2365 32.4498 52.0369 32.4498C40.8373 32.4498 35.2413 39.4203 35.2413 53.3464C35.2413 59.1752 36.4631 64.7335 38.8991 70.0215C41.3351 75.3095 44.4951 80.0717 48.3791 84.3231C52.2632 88.567 56.5469 92.7659 61.2228 96.9121C65.8987 101.066 70.5218 105.415 75.0771 109.959C79.6323 114.504 83.8482 119.364 87.7171 124.554C91.5785 129.737 94.7234 135.866 97.1519 142.927C99.5804 149.995 100.795 157.671 100.795 165.971C100.795 183.105 96.5335 196.25 88.0112 205.406C79.489 214.562 67.4599 219.144 51.9238 219.144C36.3877 219.144 23.9965 214.555 14.7578 205.376C5.51914 196.197 0.903564 183.015 0.903564 165.844Z" fill="#E8E8EB"/>
<path fill-rule="evenodd" clip-rule="evenodd" d="M153.267 106.773H169.173C174.618 106.773 178.706 105.241 181.436 102.184C184.158 99.1265 185.524 93.9436 185.524 86.6351V54.8096C185.524 47.501 184.158 42.3482 181.436 39.3362C178.706 36.3242 174.618 34.8219 169.173 34.8219H153.267V106.773ZM119.819 216.769V4.47607H169.098C202.342 4.47607 218.971 22.015 218.971 57.0855V84.6596C218.971 119.632 202.357 137.126 169.135 137.126H153.267V216.769H119.819Z" fill="#E8E8EB"/>
<path fill-rule="evenodd" clip-rule="evenodd" d="M268.023 100.111H281.101C287.843 100.111 292.873 98.3835 296.192 94.9283C299.51 91.4731 301.169 85.7044 301.169 77.6071V56.7331C301.267 42.1311 295.619 34.8226 284.223 34.8226H268.023V100.111ZM234.575 216.77V4.46924H285.045C302.255 4.46924 314.828 8.47278 322.739 16.4724C330.658 24.4719 334.617 36.768 334.617 53.3605V70.0958C334.617 91.9238 327.317 106.293 312.716 113.203C327.513 119.43 334.911 134.49 334.911 158.392V191.058V192.388C334.911 203.227 336.103 211.354 338.479 216.77H304.571C302.602 210.761 301.569 202.093 301.471 190.758V157.505C301.471 147.853 299.759 140.928 296.343 136.744C292.919 132.553 287.345 130.464 279.615 130.464H268.023V216.77H234.575Z" fill="#E8E8EB"/>
<path fill-rule="evenodd" clip-rule="evenodd" d="M356.915 216.771H390.363V4.4707H356.915V216.771Z" fill="#E8E8EB"/>
<path fill-rule="evenodd" clip-rule="evenodd" d="M448.184 186.422H467.362C473.207 186.422 477.566 184.867 480.44 181.758C483.313 178.648 484.754 173.247 484.754 165.548V147.04C484.754 137.366 483.095 130.658 479.769 126.91C476.45 123.154 470.93 121.284 463.199 121.284H448.184V186.422ZM448.184 90.9306H461.321C468.086 90.9306 473.139 89.203 476.473 85.7478C479.814 82.2926 481.481 76.5689 481.481 68.5769V56.7315C481.579 42.1294 475.907 34.8209 464.459 34.8209H448.184V90.9306ZM414.736 216.776V4.4751H465.281C482.521 4.4751 495.109 8.47113 503.035 16.4632C510.962 24.4553 514.929 36.7438 514.929 53.3288V60.8777C514.929 82.6907 507.696 96.9547 493.223 103.662C509.876 110.175 518.194 125.333 518.194 149.113V166.435C518.194 182.817 513.888 195.308 505.268 203.894C496.64 212.479 484.007 216.776 467.362 216.776H414.736Z" fill="#E8E8EB"/>
<path fill-rule="evenodd" clip-rule="evenodd" d="M538.264 216.772V4.47168H629.535V34.825H571.712V93.8942H617.642V124.24H571.712V186.419H629.535V216.772H538.264Z" fill="#E8E8EB"/>
<path fill-rule="evenodd" clip-rule="evenodd" d="M0 259.999H630.004V230.524H0V259.999Z" fill="#E8E8EB"/>
</svg>
