<svg width="1159" height="316" viewBox="0 0 1159 316" fill="none" xmlns="http://www.w3.org/2000/svg">
<g clip-path="url(#clip0_300_130)">
<rect width="1159" height="316" fill="white"/>
<rect width="1159" height="316" fill="url(#paint0_linear_300_130)"/>
<circle cx="1121.09" cy="174.09" r="217.5" transform="rotate(-94.4022 1121.09 174.09)" stroke="url(#paint1_linear_300_130)"/>
<circle cx="1121.09" cy="174.091" r="177.374" transform="rotate(-94.4022 1121.09 174.091)" stroke="url(#paint2_linear_300_130)" stroke-opacity="0.5"/>
<g filter="url(#filter0_d_300_130)">
<circle cx="1122.28" cy="173.998" r="197.736" transform="rotate(-94.4022 1122.28 173.998)" stroke="url(#paint3_linear_300_130)" stroke-opacity="0.5" stroke-linecap="round" stroke-dasharray="15 15" shape-rendering="crispEdges"/>
</g>
<path d="M1102.56 299V49H1118.44V299H1102.56ZM1156.04 124C1154.87 114.104 1150.16 106.422 1141.89 100.953C1133.62 95.4844 1123.48 92.75 1111.47 92.75C1102.68 92.75 1095 94.1823 1088.41 97.0469C1081.89 99.9115 1076.78 103.85 1073.1 108.863C1069.49 113.876 1067.68 119.573 1067.68 125.953C1067.68 131.292 1068.94 135.882 1071.46 139.723C1074.04 143.499 1077.33 146.656 1081.34 149.195C1085.34 151.669 1089.54 153.72 1093.93 155.348C1098.32 156.91 1102.36 158.18 1106.04 159.156L1126.2 164.625C1131.36 165.992 1137.11 167.88 1143.44 170.289C1149.83 172.698 1155.94 175.986 1161.75 180.152C1167.63 184.254 1172.47 189.527 1176.28 195.973C1180.09 202.418 1182 210.328 1182 219.703C1182 230.51 1179.19 240.276 1173.57 249C1168.02 257.724 1159.88 264.658 1149.16 269.801C1138.5 274.944 1125.55 277.516 1110.31 277.516C1096.1 277.516 1083.79 275.204 1073.39 270.582C1063.06 265.96 1054.92 259.514 1048.98 251.246C1043.1 242.978 1039.78 233.375 1039 222.437H1063.8C1064.45 229.99 1066.97 236.24 1071.36 241.187C1075.82 246.07 1081.43 249.716 1088.22 252.125C1095.06 254.469 1102.43 255.641 1110.31 255.641C1119.48 255.641 1127.71 254.143 1135.01 251.148C1142.31 248.089 1148.09 243.857 1152.35 238.453C1156.62 232.984 1158.75 226.604 1158.75 219.312C1158.75 212.672 1156.91 207.268 1153.23 203.102C1149.54 198.935 1144.7 195.549 1138.69 192.945C1132.69 190.341 1126.2 188.063 1119.22 186.109L1094.8 179.078C1079.3 174.586 1067.03 168.173 1057.99 159.84C1048.95 151.507 1044.43 140.602 1044.43 127.125C1044.43 115.927 1047.43 106.161 1053.44 97.8281C1059.51 89.4297 1067.65 82.9193 1077.85 78.2969C1088.12 73.6094 1099.58 71.2656 1112.24 71.2656C1125.03 71.2656 1136.4 73.5768 1146.35 78.1992C1156.29 82.7565 1164.17 89.0065 1169.99 96.9492C1175.86 104.892 1178.96 113.909 1179.29 124H1156.04Z" fill="url(#paint4_linear_300_130)"/>
<path d="M52.457 174C49.7574 174 47.6364 173.657 46.0938 172.971C44.5809 172.259 43.5129 171.125 42.89 169.569C42.2967 168.013 42 165.969 42 163.437C42 160.853 42.356 158.822 43.0679 157.345C43.7799 155.841 44.8924 154.773 46.4053 154.14C47.9479 153.481 49.9651 153.151 52.457 153.151C53.1689 153.151 53.9699 153.204 54.8598 153.31C55.7795 153.389 56.6842 153.494 57.5742 153.626C58.4641 153.758 59.2206 153.89 59.8436 154.022L59.5766 159.442C58.9833 159.389 58.301 159.336 57.5297 159.283C56.7881 159.231 56.0613 159.191 55.3493 159.165C54.6373 159.112 54.0737 159.085 53.6584 159.085C52.6794 159.085 51.8933 159.231 51.3 159.521C50.7364 159.811 50.3359 160.272 50.0986 160.905C49.8613 161.538 49.7426 162.382 49.7426 163.437C49.7426 164.571 49.8464 165.481 50.0541 166.167C50.2914 166.826 50.6919 167.301 51.2555 167.591C51.8192 167.881 52.6201 168.026 53.6584 168.026C54.0737 168.026 54.6373 168.013 55.3493 167.987C56.0613 167.934 56.8029 167.881 57.5742 167.828C58.3752 167.776 59.0723 167.736 59.6656 167.71L59.8881 173.09C59.2948 173.222 58.568 173.354 57.7077 173.486C56.8474 173.618 55.9426 173.736 54.9933 173.842C54.0737 173.947 53.2283 174 52.457 174Z" fill="white"/>
<path d="M73.7303 174C71.1791 174 69.0877 173.644 67.4562 172.932C65.8246 172.22 64.6083 171.086 63.8073 169.53C63.0361 167.974 62.6504 165.956 62.6504 163.477C62.6504 161.024 63.0509 159.046 63.8518 157.543C64.6528 156.039 65.8691 154.932 67.5007 154.219C69.1619 153.507 71.2385 153.151 73.7303 153.151C76.2222 153.151 78.2839 153.507 79.9155 154.219C81.5471 154.932 82.7634 156.039 83.5643 157.543C84.3653 159.046 84.7658 161.024 84.7658 163.477C84.7658 165.956 84.3801 167.974 83.6088 169.53C82.8375 171.086 81.6361 172.22 80.0045 172.932C78.3729 173.644 76.2815 174 73.7303 174ZM73.7303 168.422C74.6499 168.422 75.3322 168.264 75.7772 167.947C76.2519 167.631 76.5782 167.103 76.7562 166.365C76.9342 165.626 77.0232 164.664 77.0232 163.477C77.0232 162.264 76.9193 161.314 76.7117 160.628C76.504 159.943 76.1629 159.455 75.6882 159.165C75.2433 158.848 74.5906 158.69 73.7303 158.69C72.87 158.69 72.2026 158.848 71.7279 159.165C71.2533 159.455 70.9121 159.956 70.7045 160.668C70.4968 161.354 70.393 162.29 70.393 163.477C70.393 164.664 70.482 165.626 70.66 166.365C70.838 167.103 71.1643 167.631 71.6389 167.947C72.1136 168.264 72.8107 168.422 73.7303 168.422Z" fill="white"/>
<path d="M88.4038 173.525V153.626H96.0129V154.773C96.4579 154.536 96.9918 154.299 97.6148 154.061C98.2378 153.797 98.8904 153.586 99.5727 153.428C100.285 153.244 100.952 153.151 101.575 153.151C103.681 153.151 105.328 153.481 106.514 154.14C107.731 154.773 108.591 155.841 109.095 157.345C109.6 158.848 109.852 160.853 109.852 163.358V173.525H102.154V163.754C102.154 162.62 102.079 161.71 101.931 161.024C101.783 160.338 101.516 159.837 101.13 159.521C100.744 159.204 100.196 159.046 99.4837 159.046C99.0684 159.046 98.6383 159.085 98.1933 159.165C97.778 159.217 97.3775 159.296 96.9918 159.402C96.6062 159.507 96.2799 159.613 96.0129 159.718V173.525H88.4038Z" fill="white"/>
<path d="M113.966 173.525V153.626H121.575V154.773C122.02 154.536 122.554 154.299 123.177 154.061C123.8 153.797 124.452 153.586 125.135 153.428C125.847 153.244 126.514 153.151 127.137 153.151C129.243 153.151 130.89 153.481 132.076 154.14C133.292 154.773 134.153 155.841 134.657 157.345C135.161 158.848 135.414 160.853 135.414 163.358V173.525H127.715V163.754C127.715 162.62 127.641 161.71 127.493 161.024C127.345 160.338 127.078 159.837 126.692 159.521C126.306 159.204 125.758 159.046 125.046 159.046C124.63 159.046 124.2 159.085 123.755 159.165C123.34 159.217 122.939 159.296 122.554 159.402C122.168 159.507 121.842 159.613 121.575 159.718V173.525H113.966Z" fill="white"/>
<path d="M149.317 174C146.706 174 144.63 173.644 143.087 172.932C141.545 172.193 140.432 171.072 139.75 169.569C139.097 168.066 138.771 166.167 138.771 163.872C138.771 161.472 139.157 159.481 139.928 157.899C140.729 156.316 141.93 155.129 143.532 154.338C145.134 153.547 147.166 153.151 149.628 153.151C153.159 153.151 155.814 153.89 157.594 155.367C159.403 156.844 160.308 159.178 160.308 162.369L159.952 165.692H146.469C146.499 166.747 146.766 167.538 147.27 168.066C147.774 168.567 148.649 168.817 149.895 168.817C150.845 168.817 151.898 168.804 153.055 168.778C154.241 168.725 155.413 168.672 156.57 168.62C157.757 168.567 158.75 168.514 159.551 168.461L159.729 173.011C158.958 173.143 157.979 173.288 156.793 173.446C155.606 173.604 154.36 173.736 153.055 173.842C151.749 173.947 150.504 174 149.317 174ZM146.425 161.696H152.654C152.654 160.351 152.417 159.415 151.942 158.888C151.468 158.334 150.696 158.057 149.628 158.057C148.531 158.057 147.73 158.347 147.226 158.927C146.721 159.481 146.454 160.404 146.425 161.696Z" fill="white"/>
<path d="M173.531 174C170.831 174 168.71 173.657 167.167 172.971C165.655 172.259 164.587 171.125 163.964 169.569C163.37 168.013 163.074 165.969 163.074 163.437C163.074 160.853 163.43 158.822 164.142 157.345C164.854 155.841 165.966 154.773 167.479 154.14C169.022 153.481 171.039 153.151 173.531 153.151C174.243 153.151 175.044 153.204 175.934 153.31C176.853 153.389 177.758 153.494 178.648 153.626C179.538 153.758 180.294 153.89 180.917 154.022L180.65 159.442C180.057 159.389 179.375 159.336 178.603 159.283C177.862 159.231 177.135 159.191 176.423 159.165C175.711 159.112 175.147 159.085 174.732 159.085C173.753 159.085 172.967 159.231 172.374 159.521C171.81 159.811 171.41 160.272 171.172 160.905C170.935 161.538 170.816 162.382 170.816 163.437C170.816 164.571 170.92 165.481 171.128 166.167C171.365 166.826 171.766 167.301 172.329 167.591C172.893 167.881 173.694 168.026 174.732 168.026C175.147 168.026 175.711 168.013 176.423 167.987C177.135 167.934 177.877 167.881 178.648 167.828C179.449 167.776 180.146 167.736 180.739 167.71L180.962 173.09C180.368 173.222 179.642 173.354 178.781 173.486C177.921 173.618 177.016 173.736 176.067 173.842C175.147 173.947 174.302 174 173.531 174Z" fill="white"/>
<path d="M192.624 174C190.933 174 189.553 173.802 188.485 173.407C187.417 172.985 186.646 172.259 186.171 171.231C185.697 170.176 185.46 168.712 185.46 166.839V159.165H183.235V153.626H185.46V148.918H193.113V153.626H197.919V159.165H193.113V165.178C193.113 165.943 193.158 166.549 193.247 166.998C193.336 167.42 193.528 167.723 193.825 167.908C194.122 168.066 194.567 168.145 195.16 168.145C195.308 168.145 195.56 168.145 195.916 168.145C196.272 168.119 196.643 168.105 197.029 168.105C197.415 168.079 197.696 168.053 197.874 168.026L198.008 173.407C197.237 173.538 196.317 173.67 195.249 173.802C194.211 173.934 193.336 174 192.624 174Z" fill="white"/>
<path d="M215.64 174C214.839 174 213.846 173.96 212.659 173.881C211.472 173.802 210.256 173.697 209.01 173.565C207.794 173.459 206.711 173.354 205.762 173.248V145.832H213.416V154.022C214.068 153.837 214.899 153.652 215.907 153.468C216.946 153.257 217.865 153.151 218.666 153.151C220.802 153.151 222.493 153.56 223.739 154.378C225.015 155.169 225.919 156.316 226.453 157.82C226.987 159.296 227.254 161.103 227.254 163.239C227.254 165.903 226.898 168.026 226.186 169.609C225.504 171.165 224.317 172.286 222.627 172.971C220.936 173.657 218.607 174 215.64 174ZM215.729 168.382C216.827 168.382 217.628 168.185 218.132 167.789C218.666 167.393 219.022 166.826 219.2 166.088C219.408 165.323 219.512 164.413 219.512 163.358C219.512 162.198 219.408 161.288 219.2 160.628C219.022 159.943 218.711 159.455 218.266 159.165C217.821 158.874 217.228 158.729 216.486 158.729C215.982 158.729 215.433 158.795 214.839 158.927C214.276 159.059 213.801 159.191 213.416 159.323V168.264C213.712 168.29 214.083 168.316 214.528 168.343C215.003 168.369 215.403 168.382 215.729 168.382Z" fill="#FF1058"/>
<path d="M240.68 174C238.069 174 235.993 173.644 234.45 172.932C232.907 172.193 231.795 171.072 231.113 169.569C230.46 168.066 230.134 166.167 230.134 163.872C230.134 161.472 230.519 159.481 231.291 157.899C232.092 156.316 233.293 155.129 234.895 154.338C236.497 153.547 238.529 153.151 240.991 153.151C244.521 153.151 247.176 153.89 248.956 155.367C250.766 156.844 251.671 159.178 251.671 162.369L251.315 165.692H237.832C237.862 166.747 238.129 167.538 238.633 168.066C239.137 168.567 240.012 168.817 241.258 168.817C242.208 168.817 243.261 168.804 244.418 168.778C245.604 168.725 246.776 168.672 247.933 168.62C249.119 168.567 250.113 168.514 250.914 168.461L251.092 173.011C250.321 173.143 249.342 173.288 248.155 173.446C246.969 173.604 245.723 173.736 244.418 173.842C243.112 173.947 241.866 174 240.68 174ZM237.787 161.696H244.017C244.017 160.351 243.78 159.415 243.305 158.888C242.83 158.334 242.059 158.057 240.991 158.057C239.894 158.057 239.093 158.347 238.588 158.927C238.084 159.481 237.817 160.404 237.787 161.696Z" fill="#FF1058"/>
<path d="M263.292 174C261.601 174 260.221 173.802 259.153 173.407C258.085 172.985 257.314 172.259 256.839 171.231C256.365 170.176 256.127 168.712 256.127 166.839V159.165H253.903V153.626H256.127V148.918H263.781V153.626H268.587V159.165H263.781V165.178C263.781 165.943 263.826 166.549 263.915 166.998C264.003 167.42 264.196 167.723 264.493 167.908C264.79 168.066 265.235 168.145 265.828 168.145C265.976 168.145 266.228 168.145 266.584 168.145C266.94 168.119 267.311 168.105 267.697 168.105C268.082 168.079 268.364 168.053 268.542 168.026L268.676 173.407C267.904 173.538 266.985 173.67 265.917 173.802C264.879 173.934 264.003 174 263.292 174Z" fill="#FF1058"/>
<path d="M284 149.418H279.828V145.709H275.657V142H284V149.418Z" fill="#FF1058"/>
<path d="M277.743 154.981H273.571V151.272H269.399V147.563H277.743V154.981Z" fill="#FF1058"/>
</g>
<defs>
<filter id="filter0_d_300_130" x="914.038" y="-34.248" width="416.491" height="416.492" filterUnits="userSpaceOnUse" color-interpolation-filters="sRGB">
<feFlood flood-opacity="0" result="BackgroundImageFix"/>
<feColorMatrix in="SourceAlpha" type="matrix" values="0 0 0 0 0 0 0 0 0 0 0 0 0 0 0 0 0 0 127 0" result="hardAlpha"/>
<feOffset/>
<feGaussianBlur stdDeviation="5"/>
<feComposite in2="hardAlpha" operator="out"/>
<feColorMatrix type="matrix" values="0 0 0 0 1 0 0 0 0 0.0625 0 0 0 0 0.34375 0 0 0 1 0"/>
<feBlend mode="normal" in2="BackgroundImageFix" result="effect1_dropShadow_300_130"/>
<feBlend mode="normal" in="SourceGraphic" in2="effect1_dropShadow_300_130" result="shape"/>
</filter>
<linearGradient id="paint0_linear_300_130" x1="0" y1="158" x2="1159" y2="158" gradientUnits="userSpaceOnUse">
<stop stop-color="#1C1C40"/>
<stop offset="1" stop-color="#0A091A"/>
</linearGradient>
<linearGradient id="paint1_linear_300_130" x1="903.09" y1="174.443" x2="1339.09" y2="173.738" gradientUnits="userSpaceOnUse">
<stop offset="0.150431" stop-color="#990A35" stop-opacity="0.3"/>
<stop offset="0.525" stop-color="#FF1058"/>
<stop offset="0.83296" stop-color="#990A35" stop-opacity="0.3"/>
</linearGradient>
<linearGradient id="paint2_linear_300_130" x1="943.217" y1="174.378" x2="1298.96" y2="173.803" gradientUnits="userSpaceOnUse">
<stop stop-color="#990A35" stop-opacity="0.3"/>
<stop offset="0.525" stop-color="#FF1058"/>
<stop offset="1" stop-color="#990A35" stop-opacity="0.3"/>
</linearGradient>
<linearGradient id="paint3_linear_300_130" x1="924.048" y1="174.319" x2="1320.52" y2="173.677" gradientUnits="userSpaceOnUse">
<stop stop-color="#990A35" stop-opacity="0.3"/>
<stop offset="0.525" stop-color="#FF1058"/>
<stop offset="1" stop-color="#990A35" stop-opacity="0.3"/>
</linearGradient>
<linearGradient id="paint4_linear_300_130" x1="945.016" y1="81.552" x2="1312.3" y2="282.94" gradientUnits="userSpaceOnUse">
<stop stop-color="#980A35" stop-opacity="0.3"/>
<stop offset="0.76" stop-color="#FF245E" stop-opacity="0"/>
</linearGradient>
<clipPath id="clip0_300_130">
<rect width="1159" height="316" fill="white"/>
</clipPath>
</defs>
</svg>
